<?xml version="1.0" encoding="UTF-8"?>
<svg id="Layer_1" xmlns="http://www.w3.org/2000/svg" version="1.1" viewBox="0 0 25 27">
  <!-- Generator: Adobe Illustrator 29.8.2, SVG Export Plug-In . SVG Version: 2.1.1 Build 3)  -->
  <defs>
    <style>
      .st0 {
        fill: #fa7b69;
      }

      .st1 {
        fill: #7d4b4c;
      }

      .st2 {
        fill: #091021;
      }

      .st3 {
        fill: #f87a6b;
      }

      .st4 {
        fill: #f24548;
      }

      .st5 {
        fill: #ef6259;
      }

      .st6 {
        fill: #f99884;
      }

      .st7 {
        fill: #e5605a;
      }

      .st8 {
        fill: #252a3a;
      }

      .st9 {
        fill: #fba894;
      }

      .st10 {
        fill: #e57467;
      }

      .st11 {
        fill: #ed6058;
      }

      .st12 {
        fill: #f06c66;
      }

      .st13 {
        fill: #f7822f;
      }

      .st14 {
        fill: #f46b61;
      }

      .st15 {
        fill: #1c1f32;
      }

      .st16 {
        fill: #ee5822;
      }

      .st17 {
        fill: #d85f58;
      }

      .st18 {
        fill: #f07769;
      }

      .st19 {
        fill: #e84110;
      }

      .st20 {
        fill: #fba843;
      }

      .st21 {
        fill: #ed5824;
      }

      .st22 {
        fill: #121d32;
      }

      .st23 {
        fill: #ed5524;
      }

      .st24 {
        fill: #141e32;
      }

      .st25 {
        fill: #e76a3e;
      }

      .st26 {
        fill: #fc9983;
      }

      .st27 {
        fill: #f97b6a;
      }

      .st28 {
        fill: #eb5825;
      }

      .st29 {
        fill: #f67a69;
      }

      .st30 {
        fill: #111c30;
      }

      .st31 {
        fill: #e86130;
      }

      .st32 {
        fill: #fd8b7b;
      }

      .st33 {
        fill: #fc8f39;
      }

      .st34 {
        fill: #131d32;
      }

      .st35 {
        fill: #ea5a56;
      }

      .st36 {
        fill: #ec5424;
      }

      .st37 {
        fill: #f7832f;
      }

      .st38 {
        fill: #ed6158;
      }

      .st39 {
        fill: #ed5423;
      }

      .st40 {
        fill: #161e31;
      }

      .st41 {
        fill: #131c30;
      }

      .st42 {
        fill: #f59884;
      }

      .st43 {
        fill: #f87a69;
      }
    </style>
  </defs>
  <path class="st36" d="M21.81.94c.02.36.02.72.02,1.1h-.61v.57h-.54v.53h-.55v.55h-1.1v-.56h.53v-1.08h1.11v-.55h.53c0-.19,0-.36,0-.54.2-.02.41-.02.63-.02Z"/>
  <path class="st19" d="M24.05,1.17c.01-.05.02-.09.04-.13,0,.31,0,.62,0,.95-.02-.05-.03-.11-.04-.17,0-.02,0-.03,0-.08,0-.19,0-.35,0-.51,0-.02,0-.03,0-.06Z"/>
  <path class="st19" d="M24,2.11c-.15,0-.34-.05-.43.02-.08.06-.05.27-.08.42,0-.15,0-.31.02-.47.03,0,.04,0,.04,0,.14,0,.28,0,.44,0,.02.02.02.02.02.03Z"/>
  <path class="st28" d="M24.05,1.25c0,.15.01.31.01.48,0-.15-.01-.31-.01-.48Z"/>
  <path class="st28" d="M24.01,2.11s-.01-.01-.01-.02c.01-.08.03-.16.05-.25.01.05.02.1.04.17-.02.04-.04.07-.08.1Z"/>
  <path class="st28" d="M23.55,2.07s0,0-.03,0c0,0,.01,0,.03,0Z"/>
  <path class="st19" d="M24.15,1.04c.13,0,.28-.01.43,0-.13,0-.27,0-.43,0Z"/>
  <g>
    <path class="st21" d="M6.92,11.56v-1.1h.56v-.53h.56v-.6h.59v-.54h.56v1.09c-.16,0-.32,0-.52,0-.04.02-.07.04-.07.07,0,.3,0,.61,0,.91,0,.05.04.09.07.14,0,0,.01,0,.03.01.35.01.69.02,1.02.02.09,0,.13-.04.13-.13,0-.14-.03-.34.04-.4.08-.07.27-.03.41-.03.11,0,.14-.05.14-.15,0-.12,0-.24,0-.39.24,0,.45-.02.67-.02.37,0,.37,0,.38-.37,0,0,0-.01,0-.02.03-.04.06-.1.1-.11.41-.05.41-.04.43.36,0,.03,0,.06,0,.08.01.03.04.07.06.07.2,0,.41,0,.62,0-.02-.11-.03-.18-.04-.25,0-.02,0-.04,0-.08.06-.05.1-.08.15-.09.1-.02.2-.04.29-.05,0-.17,0-.31,0-.45,0-.12.03-.16.16-.16.39,0,.4,0,.4-.39,0-.11.05-.14.15-.14.11,0,.21-.02.32-.03v-.54h.53v-.54c.39,0,.78,0,1.17,0,.01,0,.01.02,0,.02-.38,0-.75,0-1.13,0,0,.18,0,.33,0,.5.03.1.06.18.1.29-.22-.04-.43-.07-.68-.12.05.07.1.12.12.17.02.04.03.11,0,.13-.12.1-.05.15.04.2.06.03.12.07.2.12,0,.04.04.14.01.16-.15.14,0,.21.06.33.09-.16.3-.2.29-.42-.23,0-.23,0-.18-.25.08.01.15.01.22.04.15.06.28.16.43.18.17.03.24.11.21.27q-.25,0-.25.24s0,.07,0,.1c.02.12-.02.17-.15.16-.13,0-.27.03-.42.05v.46c-.21.02-.41.04-.61.06,0,.05,0,.09,0,.13,0,.38,0,.38-.38.39-.1,0-.15.02-.15.14,0,.13.05.32-.02.38-.08.07-.25.04-.39.04-.08,0-.12.03-.12.12,0,.13,0,.26,0,.39-.11.01-.21.02-.31.03-.1,0-.2,0-.3,0q-.38,0-.38.39s0,.05,0,.06c-.03.04-.07.1-.11.1-.28,0-.56,0-.84,0-.04,0-.09-.06-.1-.1-.02-.04,0-.1,0-.15q0-.33-.33-.31c-.21.01-.23.03-.23.24,0,.04,0,.08,0,.12.02.15-.03.22-.19.2-.21-.01-.42,0-.63,0-.39,0-.4,0-.4.39,0,.14-.06.18-.19.17-.47,0-.93,0-1.4,0-.13,0-.17-.04-.17-.17,0-.4,0-.4-.41-.4-.13,0-.16.05-.15.17,0,.12.04.29-.03.36-.06.07-.24.04-.36.03-.11,0-.14.04-.14.14,0,.12-.02.25-.04.39-.17,0-.33,0-.49,0-.1,0-.14.03-.13.13,0,.13,0,.26,0,.4,0,.02,0,.03,0,.05-.01.02-.02.03-.04.05-.01.11-.03.22-.02.32,0,.1-.04.13-.13.13-.26,0-.53,0-.79,0-.03,0-.06.02-.1.04,0,0,0,.02,0,.04,0,.18,0,.35-.01.51-.39,0-.76,0-1.14,0v-1.11h.56v-.55h.55v-.56h.53v-.56h.56c0-.16,0-.31.02-.46.36-.02.7-.01,1.03-.02.06,0,.11-.02.17-.04Z"/>
    <path class="st39" d="M19.09,7.22c.13,0,.26,0,.41,0v-.57h.54v-.57h.56v-1.11h.59v-.56h.58c0-.19,0-.37.02-.55.18,0,.34.02.49.01.1,0,.14-.06.14-.16,0-.25,0-.49,0-.74,0-.16.05-.2.2-.19.1,0,.2-.03.3-.05v-.56c.19,0,.36,0,.56-.02.04-.16,0-.37.09-.44.09-.07.29-.02.45-.03.04-.03.06-.06.09-.11,0-.34,0-.65,0-.97,0,0,.02,0,.04,0,.16,0,.3,0,.45.02,0,.65,0,1.28,0,1.91,0,.11-.03.16-.15.15-.09,0-.19,0-.28,0-.14,0-.21.04-.2.2.01.17,0,.35,0,.53q0,.33-.33.33t-.23.24c0,.35,0,.35-.35.35-.15,0-.21.05-.21.2,0,.16,0,.32,0,.48,0,.14.03.31-.04.41-.05.07-.24.03-.37.03-.1,0-.15.04-.15.15,0,.19,0,.38,0,.58q0,.37-.36.37s-.04,0-.07,0c-.1,0-.14.04-.14.14,0,.09,0,.19,0,.28.01.13-.03.19-.17.18-.09-.01-.19,0-.28,0-.11,0-.15.04-.15.15,0,.2,0,.41,0,.61,0,.36,0,.36-.36.36-.13,0-.17.05-.17.17,0,.35,0,.7,0,1.05,0,.38,0,.39-.39.39-.14,0-.18.05-.18.18,0,.27,0,.54,0,.81-.02,0-.02.02-.04.03-.05,0-.08,0-.12-.01-.06-.09-.11-.16-.18-.24-.19.03-.19.02-.13-.19-.04-.02-.09-.05-.13-.05-.05,0-.12,0-.14.03-.08.13-.17.11-.27.02,0-.19,0-.37.01-.54.08.05.15.1.23.15-.05.06-.09.1-.13.14.14.13.21.11.25-.05.02-.08.08-.16.11-.24.02-.05-.03-.12-.04-.18,0-.13.01-.26.03-.4.02-.29.02-.57.04-.85.08-.01.14-.02.21-.04-.02-.01-.03-.03-.05-.04.02-.08.05-.17.07-.25,0-.04.03-.08.02-.11-.03-.1-.07-.2-.1-.3-.06-.02-.12-.04-.2-.06.15-.31-.17-.14-.25-.24.12-.04.22-.08.31-.11,0-.02,0-.03,0-.05-.06-.01-.13-.03-.19-.04-.09-.01-.17-.02-.26-.03Z"/>
    <path class="st16" d="M19.02,10.48c.1.07.19.1.27-.03.02-.03.09-.03.14-.03.05,0,.09.03.13.05-.06.21-.05.22.13.19.06.08.12.15.16.24-.07.01-.13.01-.19.01-.04.01-.06.02-.1.03-.03.01-.04.02-.06.03,0,0,0,0,0,0-.02,0-.02,0-.04.01-.01.34-.02.67-.02,1.02-.13.03-.26.03-.38.06-.05,0-.12.05-.13.08-.01.24-.02.48-.02.72,0,.29,0,.29-.28.29-.06,0-.12.04-.18.06,0,0,0,0,0,.01-.01.31-.02.6-.02.9,0,.11-.03.15-.15.15-.11,0-.23.02-.35.04,0,0,0,0,0,0-.01.01-.02.02-.03.04,0,.28,0,.55,0,.82,0,.22,0,.21-.23.22-.08,0-.16.02-.24.03,0,0,0,.02-.03.04-.02.07-.03.13-.03.19,0,1.06,0,2.11-.02,3.17-.16.01-.3.02-.44.04,0,0,0,0-.01,0-.03.06-.05.11-.05.17,0,.61,0,1.22,0,1.82,0,.11.04.27-.02.33-.06.06-.22.04-.34.05-.02,0-.04,0-.05,0-.03.04-.09.08-.09.12,0,.25,0,.5,0,.76,0,.31.04.26-.27.27-.08,0-.15.04-.22.06,0,0,0,0,0,0-.03.18-.06.34-.08.52-.06,0-.11,0-.16,0-.35,0-.34,0-.35-.34,0-.24-.01-.48-.02-.73,0-.03,0-.04,0-.06,0,0,.02,0,.03,0,.16,0,.3,0,.44,0,.11,0,.14-.03.14-.14,0-.34,0-.68,0-1.02,0,0,0,0,.02,0,.13,0,.24,0,.34,0,.12,0,.17-.02.17-.16,0-1.08,0-2.16,0-3.25,0-.13-.04-.16-.16-.16-.13,0-.27.04-.36-.12,0-.16,0-.3,0-.46,0-.14,0-.27,0-.39-.01-.14.03-.19.18-.19.35.01.35,0,.35-.35,0-.25,0-.5,0-.77.14.02.24.03.35.04.13.02.19-.02.18-.17-.01-.35,0-.69,0-1.05.13,0,.24,0,.34,0,.13.01.16-.04.15-.16,0-.22,0-.44,0-.66q0-.24.24-.24t.29-.3s0-.08,0-.12c0-.22,0-.43,0-.68.14,0,.26,0,.38,0,.13.01.19-.03.18-.17-.01-.25,0-.49,0-.74,0-.12.04-.15.15-.15.13,0,.25,0,.38,0Z"/>
    <path class="st23" d="M19.08,7.21c.09.01.18.02.26.03.06,0,.13.03.19.04,0,.02,0,.03,0,.05-.1.03-.19.07-.31.11.08.11.41-.07.25.24.08.02.14.05.2.06.04.1.08.2.1.3,0,.03-.01.08-.02.11-.02.08-.05.17-.07.25.02.01.03.03.05.04-.06.01-.13.02-.21.02,0-.12-.04-.16-.15-.15-.07,0-.15,0-.23,0-.05,0-.09,0-.13.02-.01.17-.02.33-.03.49-.02,0-.02.02-.04.03-.13,0-.24,0-.35-.01-.08-.08-.16-.12-.25,0,.04,0,.08.01.12.03,0,.16,0,.3-.01.44-.05-.05-.08-.11-.12-.16-.02,0-.03,0-.05.01,0,.06.01.12,0,.18-.05,0-.08,0-.12-.01-.03-.09-.06-.17-.09-.25-.06.04-.1.07-.14.09-.04-.04-.08-.07-.15-.12-.03.16-.06.28-.08.41-.01.1-.04.17-.15.17-.13.01-.16.09-.14.21.1-.04.2-.09.24.06-.27,0-.25-.03-.25.23,0,.03,0,.06-.01.1-.06-.05-.12-.09-.14-.15-.03-.13-.05-.14-.17-.05.03.04.05.07.08.11,0,.01-.01.02-.02.04-.07-.06-.2.09-.23-.1-.01-.09-.04-.18-.07-.26-.03-.04,0-.11-.03-.13-.03-.03-.1-.02-.15-.03,0,.01-.01.03-.02.04.03.04.05.07.08.11.01.02.02.06,0,.07-.01.02-.06.03-.07.03-.08-.1-.29-.05-.28-.25,0-.04-.05-.09-.05-.14,0-.04.02-.09.04-.14.03-.01.04-.02.06-.04,0-.06,0-.11,0-.17,0-.06,0-.11,0-.16,0-.04,0-.06,0-.1,0-.03,0-.04,0-.06,0-.14,0-.26,0-.4-.04-.05-.07-.11-.11-.11-.45-.04-.45-.04-.45.41,0,.02,0,.03,0,.05-.01.01-.02.02-.03.04-.09.01-.17.02-.25.02.01-.16-.05-.24-.22-.27-.15-.03-.29-.13-.43-.18-.06-.02-.14-.03-.22-.05-.02-.06-.02-.1-.03-.17-.08.1-.1.16.02.18-.04.24-.03.25.19.25,0,.21-.2.26-.29.42-.07-.11-.21-.18-.06-.33.03-.03,0-.12-.01-.16-.08-.05-.14-.08-.2-.12-.09-.05-.16-.1-.04-.2.02-.02.01-.09,0-.13-.02-.05-.07-.1-.12-.17.25.04.45.08.68.12-.04-.11-.07-.19-.09-.3.01-.15.02-.27.03-.4.07-.02.13-.04.2-.06.1,0,.19,0,.28.01.15.09.29.07.44-.01.03,0,.04,0,.06.01.01.02.03.03.04.04,0-.02.02-.03.03-.05.02,0,.04-.02.05-.03,0,0,0-.01,0-.02,0,0,0-.01.02-.02.03-.09.04-.18.06-.26.15-.06.06-.15.07-.23.27-.01.53-.02.79-.03.05,0,.1-.04.15-.07,0,0,0-.01.01-.02.02-.16.02-.31.02-.46.06,0,.11,0,.18.01.04.04.06.06.08.08.02-.03.04-.06.06-.09.05-.01.09-.03.15-.06.02-.16.03-.3.04-.45,0-.02,0-.04.02-.05.22-.05.1.19.22.23.02-.05.03-.1.06-.14.03-.04.07-.06.11-.09.02-.02.04-.04.05-.06,0,0,0,0,0,0,.01,0,.02,0,.03,0,.01-.11.02-.21.02-.3,0-.12.01-.12.15-.08-.06.17-.05.43.1.53-.08.03-.16.03-.24.03-.03,0-.07,0-.1.01,0,0,0,.06,0,.07.08.04.16.1.24.12.14.03.28.04.43.06.02,0,.05-.03.08-.04.05-.02.1-.05.17-.07-.08-.13-.06-.28.06-.42.02.2.03.4.02.6,0,.02-.03.07-.05.07-.14,0-.28,0-.42-.02-.08,0-.15-.03-.23-.02-.01,0-.02.1-.03.15,0,.02-.01.03-.02.04-.1.12-.04.18.08.24.04-.05.08-.1.14-.18v.28c-.11,0-.22,0-.32,0-.04,0-.09.04-.13.06-.01,0-.02,0-.03.04-.02.25-.05.48-.05.72,0,.1.03.2.05.31,0,.02,0,.04.02.07.02.02.03.02.04.04.02.01.04.02.06.04.06.08.1.08.15-.01.1,0,.18,0,.26,0,.16,0,.32-.02.48-.04,0-.01,0-.02,0-.03,0,0,0,0,.01,0,.04-.17.07-.35.1-.52,0,0,0,0,.02,0M18.66,8.14c.05-.11-.04-.12-.1-.12-.03,0-.07.06-.1.09.05.02.09.05.14.06.01,0,.03,0,.07-.03M14.37,8.25q-.08.1.06.14c-.03-.1.13-.2,0-.34-.02.09-.03.14-.06.2M15.56,8.26c.05.04.1.09.15.13,0-.04.01-.09,0-.12-.03-.06-.06-.15-.15,0M19.66,8.14s-.05-.07-.07-.11c-.02.02-.03.03-.05.05.04.02.07.05.13.05M17.75,8.9s.02.06.03.09l.05-.05s-.04-.04-.08-.04M17.22,7.06s-.05-.05-.08-.07l-.03.05s.06.02.11.02M17.97,7.94s-.05-.06-.08-.09c-.01.02-.03.04-.04.05.04.02.08.04.12.04M17.5,6.27h-.07s.02.05.03.08c.01-.02.03-.04.03-.08M17.35,7.64l.04-.07s-.04,0-.06-.01c0,.03,0,.05.02.08M15.35,8.4s-.05,0-.07.01c0,.01,0,.03,0,.04.02-.01.05-.02.07-.05M19.23,7.7s.04.02.05.03v-.03s-.02-.01-.05,0M17.12,9.66s-.02.03-.03.04c.01,0,.03,0,.04.01,0-.02,0-.03-.01-.05M17.35,9.45s.02.02.03.03c0,0,.01-.01.01-.01,0,0-.02-.02-.04-.02Z"/>
    <path class="st24" d="M11.83,25.31c-.08,0-.16,0-.27,0-.04.1-.05.19-.06.28,0,.1.03.22-.1.27-.29,0-.57,0-.88,0-.07,0-.12,0-.17,0-.05,0-.09,0-.16,0-.06,0-.1,0-.14,0-.02,0-.05,0-.1,0-.13-.09-.14-.46-.02-.58.05,0,.08,0,.13.01.06,0,.11,0,.17,0,.1,0,.19,0,.29,0,.15,0,.3,0,.45,0,0-.02,0-.03.02-.05.01-.12.02-.24.02-.35,0-.1.03-.13.13-.13.25,0,.5,0,.75,0,.06,0,.11-.02.17-.04,0,0,0-.02,0-.04,0-.19,0-.36,0-.54.19,0,.36,0,.53,0,0,0,0,0,.01.01,0,.4,0,.78,0,1.16h.97v-.56h.55c0-.29,0-.57,0-.86,0-.05,0-.08,0-.13,0-.25,0-.49,0-.75.19,0,.37,0,.56,0,.02-.07.03-.12.03-.18,0-.95,0-1.9,0-2.85,0-.66,0-1.33,0-1.99,0-.14.04-.19.18-.17.03,0,.06,0,.08,0,.17-.03.21.04.21.21,0,1.58,0,3.16,0,4.75,0,.06.02.13.03.2,0,.03,0,.04,0,.06v.57c-.19,0-.36,0-.56.02-.03.03-.04.05-.04.07,0,.5,0,1.01,0,1.51,0,.03.03.06.04.1-.17.01-.33.02-.53.04-.09.11-.12.22-.01.33,0,.07,0,.15-.02.22-.55,0-1.08-.01-1.61-.02-.34,0-.33,0-.34-.33,0-.06-.04-.13-.06-.19-.07,0-.14,0-.22,0-.03,0-.04,0-.04,0Z"/>
    <path class="st34" d="M1.15,23.56h-.59v-3.5c.17,0,.35,0,.53.02.02.35.01.68.02,1.01,0,.05.03.11.06.16.2,0,.38,0,.56.01,0,.58,0,1.14,0,1.72,0,.19,0,.37,0,.55,0,0,0,.02,0,.03.07.02.13.03.19.03.79,0,1.59,0,2.38,0,.29,0,.25-.04.26.27,0,.06.03.11.05.18,0,.03-.01.06-.03.07-.62-.01-1.22-.02-1.83-.02-.01,0-.03.02-.05.03-.03,0-.04,0-.06,0-.03,0-.06,0-.1,0-.03,0-.04,0-.07-.01-.06,0-.1,0-.15.03,0,.2,0,.39,0,.58,0,0,0,0,0,0h-.6c0-.19,0-.36,0-.56-.11-.04-.21-.07-.31-.06-.17.01-.22-.05-.21-.21,0-.11-.04-.21-.06-.32Z"/>
    <path class="st24" d="M6.95,26.66v-.79c-.17,0-.32,0-.49-.01-.42-.02-.81-.02-1.2-.02-.02,0-.04.02-.05.03,0,.13-.02.26-.03.38,0,.06,0,.13,0,.21-.51,0-1,0-1.51-.01-.2-.01-.36-.02-.53-.02-.12,0-.17-.04-.17-.16,0-.32,0-.64.02-.96.15,0,.28,0,.42.01.02.08.05.14.06.21.02.11.02.22.04.34.38,0,.76,0,1.14,0v-.56s.04-.02.06-.02c.92,0,1.83,0,2.75.02,0,.32,0,.62,0,.93,0,.06.02.11.04.17.02,0,.03.01.04.02-.01.01-.02.02-.02.03,0,0,.02,0,.03,0,.54,0,1.07,0,1.61,0,.02,0,.04-.03.06-.05,0,0,.02-.01.03-.02.02-.16.03-.31.04-.48h.49c0,.3,0,.59,0,.88,0,.05-.06.13-.09.13-.4,0-.81,0-1.21,0-.21,0-.42,0-.62,0-.28,0-.55,0-.82,0-.02-.11-.03-.2-.05-.29Z"/>
    <path class="st24" d="M3.49,14.87c.37,0,.75,0,1.14,0,.02,0,.01,0,.02,0,0,.01,0,.02,0,.04,0,.18,0,.34,0,.52h-.59v.57h-.56v.58c-.2,0-.38,0-.57,0-.2,0-.39,0-.58-.02,0-.21,0-.4,0-.6-.04-.02-.07-.04-.1-.04-.51,0-1.02,0-1.53,0-.04,0-.08.03-.11.05,0,.21,0,.41,0,.62,0,.2,0,.38,0,.57-.01.03-.02.05-.03.07-.04-.03-.09-.07-.13-.07-.14,0-.28,0-.43,0,0-.58,0-1.15.02-1.72.04,0,.07.02.09.02.88,0,1.75,0,2.63,0,.04,0,.08-.02.12-.03,0,0,.01,0,.03,0,.02,0,.03,0,.05.02.08,0,.15,0,.23-.01.11,0,.21,0,.32,0v-.56s0,0,0,0Z"/>
    <path class="st28" d="M11.63,6.1h.49v-.57h.59v1.09h-.55v1.11h-.55v.56h-.55v-1.1c.17,0,.35,0,.54-.02.03-.37.03-.73.04-1.08Z"/>
    <path class="st23" d="M16.94,2.75v-.56h.65v1.08c-.19,0-.37,0-.58,0-.04.05-.06.1-.06.16,0,.21,0,.42,0,.62,0,.34,0,.33-.33.34-.06,0-.13.04-.19.06,0,0,0,0,0,0-.01.05-.02.1-.02.14,0,.37-.08.42-.46.32-.01,0-.02,0-.03,0v-1.04c.16,0,.33-.02.52-.04.03-.3.04-.58.04-.87,0-.12.03-.16.16-.16.11,0,.23-.03.34-.05Z"/>
    <path class="st30" d="M1.14,20.06c0-.58,0-1.16.01-1.76.02-.07.05-.14.04-.17-.02-.04-.1-.08-.13-.07-.05.02-.07.09-.13.16-.09-.03-.2-.07-.3-.12,0-.04,0-.06.01-.09.06-.04.1-.08.15-.13.05.05.08.09.12.13.04-.14.16-.25.06-.4-.06-.1.04-.23.15-.25.01.13.02.24.05.36.2.01.39.02.58.03,0,.01,0,.02,0,.04,0,.18,0,.35,0,.53,0,.38,0,.74,0,1.12,0,.21,0,.41-.02.61-.15,0-.28,0-.42,0-.05,0-.09,0-.13,0-.02,0-.03-.01-.04-.02Z"/>
    <path class="st39" d="M17.98,6.62s.07-.06.12-.06c.1,0,.21,0,.32,0v-.28c-.06.07-.1.12-.14.18-.12-.06-.18-.13-.08-.24.01-.01.02-.03.02-.04.01-.05.02-.15.03-.15.08,0,.15.02.23.02.14,0,.28.02.42.02.02,0,.05-.04.05-.07,0-.2,0-.4-.02-.6-.12.14-.14.29-.06.42-.06.03-.12.05-.17.07-.03.01-.05.04-.08.04-.14-.01-.29-.03-.43-.06-.08-.02-.16-.07-.24-.12-.01,0-.01-.07,0-.07.03,0,.06,0,.1-.01.08,0,.16,0,.24-.03-.15-.1-.17-.35-.1-.53-.14-.04-.14-.04-.15.08,0,.1,0,.2-.02.29,0-.11-.02-.21,0-.32,0-.06.04-.11.06-.17.04,0,.07,0,.13,0,.05,0,.07,0,.1,0,.05,0,.1,0,.16,0,.03,0,.03-.01.04-.02,0,0,0,0,0,0,.01-.13.03-.25.02-.37,0-.11.03-.15.15-.15.28,0,.56,0,.84,0,0,.18-.02.36-.05.53-.1,0-.18,0-.25,0-.03,0-.06,0-.11,0-.04,0-.06.02-.08.03,0,0,0,.02-.01.03-.01.36-.02.71-.02,1.05h-.52c0,.14,0,.26,0,.38,0,.11-.05.15-.14.15-.11,0-.22,0-.34,0Z"/>
    <path class="st23" d="M15.88,4.97v1.11h-1.11v-1.12c.37,0,.72,0,1.1,0,.01,0,.01,0,.01,0Z"/>
    <path class="st28" d="M19.53,10.97s.02-.02.05-.03c.05-.01.07-.02.1-.03.06,0,.11,0,.18,0,.05,0,.08,0,.14,0,.03-.01.04-.02.04-.03,0-.27,0-.54,0-.81,0-.13.04-.18.18-.18.39,0,.39,0,.39-.39,0-.35,0-.7,0-1.05,0-.13.04-.17.17-.17.36,0,.36,0,.36-.36,0-.2,0-.41,0-.61,0-.11.04-.15.15-.15.09,0,.19,0,.28,0,.14.02.18-.05.17-.18,0-.09,0-.19,0-.28,0-.1.04-.14.14-.14.02,0,.04,0,.07,0q.36,0,.36-.37c0-.19,0-.38,0-.58,0-.11.04-.15.15-.15.13,0,.33.04.37-.03.07-.1.03-.27.04-.41,0-.16,0-.32,0-.48,0-.15.06-.2.21-.2.35,0,.35,0,.35-.35q0-.24.23-.24t.33-.33c0-.18,0-.35,0-.53-.01-.16.06-.21.2-.2.09,0,.19,0,.28,0,.12.01.15-.04.15-.15,0-.63,0-1.26-.01-1.92-.16-.02-.31-.01-.45,0,0,0-.02,0-.03,0-.03.04-.04.08-.05.12,0-.05-.01-.11-.02-.18h.58v2.18h-.58v1.06h-.56v.59h-.55v1.11h-.59v1.1h-.57v.6h-.59v1.1h-.53v1.62h-.56v1.06c-.19,0-.37,0-.56,0Z"/>
    <path class="st8" d="M6.95,26.68c.02.07.03.16.05.28.27,0,.55,0,.82,0,.21,0,.42,0,.62,0,.4,0,.81,0,1.21,0,.03,0,.09-.09.09-.13,0-.29,0-.58,0-.88h-.49c0,.17-.02.32-.04.47-.01,0-.02-.01-.01-.03,0-.18,0-.34,0-.52h.57c0-.2,0-.38,0-.56.05-.01.08-.02.12-.02-.11.12-.1.49.02.57-.03.01-.07.02-.12.02v1.12h-2.87c0-.09,0-.2,0-.32Z"/>
    <path class="st31" d="M3.48,14.87c.02.18.02.35.02.55-.11,0-.21,0-.34,0-.1,0-.16,0-.23,0,0,0-.02,0-.03,0,0-.18,0-.35,0-.55.21,0,.39,0,.59,0Z"/>
    <path class="st31" d="M12.67,9.71c.02.05.03.12.05.23-.22,0-.42,0-.62,0-.02,0-.04-.04-.06-.07,0-.02,0-.05,0-.08-.01-.4-.01-.41-.43-.36-.04,0-.07.07-.1.11,0,0,0,.01,0,.02-.02.37-.02.37-.38.37-.22,0-.43.01-.67.02,0,.15,0,.27,0,.39,0,.1-.03.15-.14.15-.14,0-.33-.04-.41.03-.07.07-.04.26-.04.4,0,.09-.04.13-.13.13-.33,0-.67,0-1.01-.02.35,0,.71,0,1.09,0v-.56h.58v-.56h1.06v-.5h.64v.51h.57c0-.05,0-.11.02-.18Z"/>
    <path class="st39" d="M15.87,22.44c.06-.02.13-.06.21-.06.31-.01.27.04.27-.27,0-.25,0-.5,0-.76,0-.04.06-.08.09-.12,0,0,.03,0,.05,0,.12-.01.27.02.34-.05.06-.06.02-.22.02-.33,0-.61,0-1.22,0-1.82,0-.05.03-.11.05-.17,0,.21,0,.41,0,.62,0,.55,0,1.1,0,1.65,0,.05,0,.1,0,.16h-.51v1.16c-.17,0-.34,0-.51,0Z"/>
    <path class="st24" d="M2.34,24.75s0-.01,0-.03c0,0,0,0,.01,0,.07,0,.13.01.19.03.11.03.26.02.3.08.05.08.02.22.02.33,0,.03,0,.05,0,.08-.02,0-.02.02-.04.03-.12,0-.22,0-.33,0-.09,0-.12-.04-.12-.13,0-.13-.02-.27-.02-.4Z"/>
    <path class="st31" d="M14.12,8.3c-.09.01-.2.03-.3.03-.1,0-.15.02-.15.14,0,.39-.01.39-.4.39-.13,0-.16.04-.16.16,0,.14,0,.28,0,.45-.09.02-.19.03-.29.05-.05.01-.09.04-.14.08-.05-.11,0-.15.12-.14.08,0,.15,0,.25,0v-.64h.58v-.52c.17,0,.33,0,.5,0Z"/>
    <path class="st19" d="M22.89,2.74c-.09.02-.19.05-.29.05-.15,0-.2.03-.2.19.01.25,0,.49,0,.74,0,.1-.04.16-.14.16-.16,0-.32,0-.48-.02.17-.02.36-.03.56-.04v-1.08c.19,0,.35,0,.54,0Z"/>
    <path class="st28" d="M19.47,10.98s.01,0,.03,0c0,.36,0,.72,0,1.1h-.52v1.12c-.18,0-.34,0-.52,0,.05-.01.11-.05.17-.05.28,0,.28,0,.28-.29,0-.24,0-.48.02-.72,0-.03.08-.07.13-.08.12-.02.25-.03.39-.07.02-.36.02-.69.02-1.02Z"/>
    <path class="st8" d="M2.83,25.28s0-.02.03-.03c.02,0,.03,0,.04,0,.02.03.04.04.06.06,0,.32,0,.64,0,.95,0,.12.04.17.17.16.17,0,.34,0,.52.02-.24,0-.48,0-.75,0,0-.37,0-.74-.01-1.13-.02-.03-.03-.04-.04-.06Z"/>
    <path class="st19" d="M17.37,18.82c0-1.06,0-2.11,0-3.17,0-.06.01-.12.03-.18.01,1.11.01,2.22.01,3.33,0,.02,0,.03-.03.04-.01,0-.02-.02-.02-.02Z"/>
    <path class="st19" d="M16.43,4.44c.05-.02.11-.05.18-.06.33,0,.33,0,.33-.34,0-.21,0-.42,0-.62,0-.05.02-.1.04-.16.01.38.01.76.01,1.17-.2,0-.38,0-.57,0Z"/>
    <path class="st2" d="M1.15,17.73c-.01-.11-.02-.22-.03-.36.01-.12-.02-.18-.12-.17-.07,0-.14,0-.21,0-.12-.01-.17.03-.16.15,0,.22,0,.45,0,.67,0,.02,0,.05,0,.1-.02.05-.04.07-.06.1,0-.32,0-.64,0-.97.01-.03.02-.05.05-.08.19,0,.37,0,.55.02,0,.17,0,.33,0,.49,0,0,0,.02,0,.03,0,.01,0,.02,0,.03Z"/>
    <path class="st39" d="M16.92,6.62s-.09.06-.14.06c-.26.01-.52.02-.8.03-.04.08-.05.16-.07.23-.01.09-.02.17-.05.26-.01-.18-.01-.36-.01-.56.36,0,.7-.02,1.06-.03Z"/>
    <path class="st2" d="M2.85,15.42s-.07.03-.11.03c-.88,0-1.75,0-2.63,0-.02,0-.04,0-.07-.02.93-.01,1.86-.01,2.81-.01Z"/>
    <path class="st39" d="M15.25,23.01s-.02-.03-.02-.08c0-.36,0-.69,0-1.02,0,.24.02.48.02.72,0,.34,0,.34.35.34.05,0,.1,0,.16,0,.02-.18.05-.34.08-.52,0,.17,0,.35,0,.56-.2,0-.4,0-.6,0Z"/>
    <path class="st24" d="M.56,18.24s.04-.06.06-.1c.11.03.22.06.3.1.06-.08.08-.14.13-.16.03-.01.11.03.13.07.02.03-.02.09-.04.15-.17.01-.34.01-.5,0-.03,0-.06-.03-.08-.06Z"/>
    <path class="st2" d="M12.1,25.33c.02.05.06.11.06.18,0,.33,0,.33.34.33.53,0,1.06,0,1.6.02-.66,0-1.32,0-1.99,0,0-.18,0-.36,0-.54Z"/>
    <path class="st2" d="M1.16,23.58c.01.09.06.2.05.3,0,.16.05.23.21.21.1,0,.21.02.32.04-.18.01-.37.01-.57.01,0-.2,0-.38,0-.57Z"/>
    <path class="st28" d="M17.95,14.31c.1-.01.22-.04.33-.04.12,0,.15-.04.15-.15,0-.3,0-.59.02-.9,0,.35,0,.71,0,1.08-.17,0-.33,0-.51,0Z"/>
    <path class="st31" d="M8.67,10.99s-.06-.08-.06-.12c0-.3,0-.61,0-.91,0-.02.03-.04.05-.07.01.36.01.72.01,1.1Z"/>
    <path class="st2" d="M14.68,25.27s-.04-.05-.04-.08c0-.5,0-1.01,0-1.51,0-.02.01-.04.03-.06.01.55.02,1.1.01,1.66Z"/>
    <path class="st39" d="M17.94,7.67c-.03-.09-.07-.2-.07-.3,0-.23.03-.46.05-.71.01.02.03.06.03.1,0,.3,0,.6-.02.91Z"/>
    <path class="st19" d="M17.45,15.42c.06-.01.14-.03.22-.03.23,0,.23,0,.23-.22,0-.27,0-.54,0-.82.01-.02.02-.02.02-.02v1.09c-.16,0-.31,0-.48,0Z"/>
    <path class="st19" d="M16.92,2.75c-.1.01-.21.05-.32.04-.12,0-.16.04-.16.16,0,.28,0,.57-.02.86-.01-.34-.01-.69-.01-1.06.17,0,.34,0,.52,0Z"/>
    <path class="st25" d="M19.5,4.43c-.27.01-.55.02-.83,0-.12,0-.15.04-.15.15,0,.12,0,.24-.02.37,0-.17,0-.35,0-.54.34,0,.67,0,1.01.01Z"/>
    <path class="st2" d="M1.13,20.06s.03,0,.03.03c0,.4,0,.78,0,1.16-.02-.05-.05-.11-.05-.16,0-.33,0-.67,0-1.01,0-.02.01-.02.02-.02Z"/>
    <path class="st2" d="M2.81,25.28s.04.03.05.05c-.17,0-.34,0-.53,0,0-.2,0-.38,0-.57.01.12.03.25.03.39,0,.09.03.13.12.13.1,0,.21,0,.33,0Z"/>
    <path class="st8" d="M11.41,25.87c.11-.06.08-.17.09-.28,0-.09.02-.19.05-.28,0,.15,0,.31,0,.46,0,.09-.04.11-.13.1Z"/>
    <path class="st2" d="M5.22,25.88s.02-.03.04-.03c.39,0,.79,0,1.19.02-.4.01-.8.02-1.23.02Z"/>
    <path class="st19" d="M6.9,11.56s-.09.04-.15.04c-.34,0-.68,0-1.03,0,.03-.01.08-.04.12-.04.35,0,.69,0,1.06,0Z"/>
    <path class="st19" d="M15.89,4.92s.02,0,.04,0c.38.11.45.05.46-.32,0-.04,0-.09.02-.14,0,.16,0,.34,0,.52-.17,0-.34,0-.51,0-.02,0-.01,0-.01,0,0-.02,0-.03,0-.06Z"/>
    <path class="st19" d="M11.62,6.1c0,.35,0,.71-.01,1.07,0-.35,0-.71.01-1.07Z"/>
    <path class="st10" d="M18.99,6.09c0-.34,0-.68,0-1.04,0,.34,0,.68,0,1.04Z"/>
    <path class="st31" d="M17.99,7.77s-.02,0-.03-.02c.32,0,.63-.01.97-.01.02,0,.02.01,0,.03-.32,0-.63,0-.94,0Z"/>
    <path class="st39" d="M17.5,5.63c0,.14-.02.28-.04.43-.02-.13-.02-.26-.01-.41.03-.02.04-.02.05-.02Z"/>
    <path class="st39" d="M19.06,7.21c-.02.17-.05.35-.1.52-.01-.02-.01-.05,0-.09.01-.16.02-.29.02-.43.02,0,.04,0,.07,0Z"/>
    <path class="st25" d="M17.5,5.62s-.02.01-.05.02c-.03-.1,0-.14.11-.13.12,0,.25,0,.39,0,0,.02-.01.04-.05.05-.15,0-.27,0-.4.01,0,.01,0,.03,0,.05Z"/>
    <path class="st2" d="M14.13,25.63c-.1-.09-.08-.2,0-.31.01.1,0,.2,0,.31Z"/>
    <path class="st25" d="M18.04,4.99c0,.06-.04.11-.05.17,0,.1,0,.21,0,.32,0,.02-.01.02-.03.02,0-.13-.01-.27,0-.4,0-.04.04-.08.08-.11Z"/>
    <path class="st39" d="M16.96,6.13c.01.15,0,.3,0,.45-.01-.15,0-.3,0-.45Z"/>
    <path class="st39" d="M17.35,18.82s.02.02.02.02c-.14,0-.29.01-.45.01.13-.01.27-.02.43-.04Z"/>
    <path class="st31" d="M18.97,7.22c0,.13,0,.27,0,.41,0-.13,0-.27,0-.41Z"/>
    <path class="st21" d="M17.29,6.13s-.03.06-.05.09c-.02-.02-.05-.05-.07-.08.03-.01.07-.02.12-.01Z"/>
    <path class="st10" d="M19.21,4.99c.06,0,.14-.01.23-.01-.06,0-.14.01-.23.01Z"/>
    <path class="st8" d="M10.36,25.87s.09-.01.14-.01c-.04,0-.08.01-.14.01Z"/>
    <path class="st8" d="M10.06,25.87s.06-.01.11-.01c-.03,0-.06.01-.11.01Z"/>
    <path class="st25" d="M18.28,4.99s-.04.01-.07,0c.02,0,.04-.01.07,0Z"/>
    <path class="st10" d="M19.03,5s.03-.02.06-.03c0,.01-.03.02-.06.03Z"/>
    <path class="st8" d="M11.84,25.31s0,0,.02,0c0,0,0,0-.02,0Z"/>
    <path class="st25" d="M18.48,4.98s0,.01-.02.02c0,0,0,0,.02-.02Z"/>
    <path class="st28" d="M17.93,14.33s-.01,0-.03,0c0,0,0-.02.02-.03,0,0,0,.01,0,.02Z"/>
    <path class="st13" d="M15.54,8.86c.1,0,.18,0,.28-.03.02-.02.03-.03.03-.04,0-.02,0-.03,0-.05,0-.45,0-.45.45-.41.04,0,.07.06.11.13,0,.15,0,.27,0,.39,0,.01,0,.03,0,.07,0,.05,0,.07,0,.1,0,.05,0,.09,0,.16,0,.07,0,.12,0,.17-.02.01-.03.02-.07.03-.07,0-.12,0-.18,0-.09,0-.17,0-.26,0-.02,0-.02.02-.02.04,0,.07,0,.13,0,.2,0,.24,0,.45,0,.67,0,.04-.04.11-.07.12-.13.02-.26.02-.39.01-.13,0-.17.04-.17.17,0,.39,0,.39-.39.39-.13,0-.17.05-.17.17.01.44.02.89.03,1.33,0,.09.03.11.12.12.41.02.41.03.41-.38,0,0,0-.01,0-.02-.02-.11.04-.14.14-.14.15,0,.29-.02.44-.04,0-.07,0-.12,0-.18,0-.34,0-.35.35-.34.15,0,.19-.04.18-.19,0-.34,0-.35.34-.34.14,0,.19-.03.19-.18,0-.35,0-.35.34-.35.19,0,.21-.04.15-.23,0-.03,0-.06,0-.1,0-.26-.02-.23.26-.23.25.06.27.05.27-.17,0-.04,0-.09,0-.13q0-.23.23-.27s.07,0,.13,0c.07-.01.12-.02.16-.03,0-.14,0-.29.01-.45.05-.02.08-.02.12-.02.11,0,.22,0,.36,0,.03,0,.04-.02.04-.03,0-.16,0-.32.04-.49.06,0,.09,0,.13-.01.08,0,.15,0,.23,0,.11,0,.15.03.14.15,0,.29,0,.57-.04.86-.11.02-.2.03-.31.04-.22-.02-.13.14-.15.25,0,.04,0,.06,0,.1,0,.05,0,.08,0,.13,0,.03,0,.04,0,.06,0,.18,0,.35,0,.54-.13.01-.25.02-.38.01-.11,0-.16.03-.15.15,0,.25,0,.49,0,.74,0,.14-.05.18-.18.17-.12-.01-.25,0-.38,0,0,.24,0,.46,0,.68,0,.04,0,.08,0,.12q.02.3-.29.3t-.24.24c0,.22,0,.44,0,.66,0,.12-.03.17-.15.16-.1,0-.21,0-.34,0,0,.36,0,.71,0,1.05,0,.15-.05.18-.18.17-.11-.01-.21-.02-.35-.04,0,.27,0,.52,0,.77,0,.35,0,.36-.35.35-.15,0-.19.05-.18.19.01.13,0,.25-.01.39-.15.02-.28,0-.41.02-.13,0-.17-.03-.17-.16,0-.39,0-.78,0-1.17q0-.38.37-.38s.08.01.11,0c.04-.02.1-.07.1-.11,0-.49,0-.98,0-1.47,0-.04-.05-.1-.07-.1-.17,0-.35,0-.52,0,0,.13-.02.27-.03.4,0,0,0,.01,0,.02,0,.09-.03.13-.12.13-.12,0-.28-.03-.34.03-.06.06-.03.23-.03.35,0,.12-.04.15-.15.15-.28,0-.57.01-.85.03-.11,0-.16-.02-.15-.14,0-.64,0-1.29,0-1.93,0-.06,0-.13,0-.21-.2.02-.37.04-.56.05,0,.14,0,.27,0,.4,0,.12-.04.15-.15.15-.22,0-.45,0-.68,0-.1,0-.13.04-.13.13,0,.14.04.33-.03.39-.09.07-.27.03-.41.04-.2,0-.4,0-.65,0,0,.39,0,.74-.01,1.1-.2,0-.39.01-.58.02,0,0,0,0,0-.01,0-.19,0-.36-.01-.55-.06-.02-.12-.03-.17-.03-1.49,0-2.98,0-4.47,0,0-.13,0-.26,0-.4,0-.1.03-.14.13-.13.16,0,.32,0,.49,0,.01-.14.04-.26.04-.39,0-.1.03-.15.14-.14.12,0,.3.03.36-.03.07-.07.03-.24.03-.36,0-.12.02-.17.15-.17.41,0,.41,0,.41.4,0,.13.03.17.17.17.47,0,.93,0,1.4,0,.13,0,.19-.03.19-.17,0-.39,0-.39.4-.39.21,0,.42-.01.63,0,.16.01.22-.05.19-.2,0-.04,0-.08,0-.12,0-.22.01-.23.23-.24q.33-.02.33.31s-.01.1,0,.15c.02.04.07.1.1.1.28,0,.56,0,.84,0,.04,0,.07-.06.11-.1.01-.01,0-.04,0-.06q0-.39.38-.39c.1,0,.2,0,.3,0,.1,0,.19-.02.31-.03,0-.12,0-.26,0-.39,0-.09.03-.11.12-.12.13,0,.31.03.39-.04.07-.06.03-.25.02-.38,0-.11.05-.14.15-.14.38,0,.38,0,.38-.39,0-.04,0-.07,0-.13.2-.02.39-.04.61-.06v-.46c.15-.02.28-.05.42-.05.13,0,.17-.05.15-.16,0-.03,0-.07,0-.1q0-.24.25-.24Z"/>
    <path class="st41" d="M10.38,13.75c0,.17,0,.35,0,.54-.14.02-.26.02-.4.01-.07,0-.13,0-.19,0,0,0,0,0,0-.02-.04-.01-.06-.02-.09-.02-1.28,0-2.55,0-3.83,0-.04,0-.08.02-.13.03-.01,0-.02,0-.03,0,0,0,0,0,0-.01,0-.17,0-.32,0-.48,0-.01.01-.02.04-.04,1.56-.01,3.1-.01,4.64-.02Z"/>
    <path class="st24" d="M4.64,14.33s0-.02.02-.02c.36,0,.7,0,1.04,0,0,0,0,0,0,0,0,.01,0,.02-.01.03-.01.12-.02.24-.02.35,0,.1-.03.14-.13.13-.24,0-.48,0-.72,0-.11,0-.14-.04-.14-.14,0-.12-.02-.23-.03-.35Z"/>
    <path class="st33" d="M10.37,13.74c-1.53.02-3.07.02-4.62.02-.02-.01-.02-.02-.02-.04,1.49,0,2.98,0,4.47,0,.05,0,.11.01.17.03Z"/>
    <path class="st2" d="M4.64,14.35c.01.1.03.22.03.34,0,.1.03.15.14.14.24,0,.48,0,.72,0,.1,0,.14-.03.13-.13,0-.11,0-.23.02-.34.02,0,.02,0,.02.03,0,.06,0,.1,0,.16,0,.11,0,.2,0,.3-.18.02-.36.03-.55.04-.18,0-.35-.01-.52-.02,0,0,0,0,0,0,0-.17,0-.33,0-.51Z"/>
    <path class="st19" d="M15.83,7.25s-.01.02-.05.03c-.03,0-.05,0-.06,0-.01,0-.03,0-.07,0-.16,0-.29,0-.42,0-.09,0-.18,0-.3,0-.09.02-.14.04-.2.07,0,.12,0,.25-.02.38,0-.14,0-.3,0-.48.38,0,.75,0,1.13,0Z"/>
    <path class="st25" d="M5.7,14.29c-.34.02-.68.02-1.04.02.02-.01.05-.03.08-.03.26,0,.53,0,.79,0,.1,0,.14-.03.13-.13,0-.1,0-.21.02-.32.01.15.01.3.01.47Z"/>
    <path class="st16" d="M19.18,9.39c.09,0,.18-.02.28-.03,0,.13-.01.26,0,.39,0,.07.05.13.04.18-.04.08-.09.15-.11.24-.04.16-.11.17-.25.05.04-.04.08-.08.13-.14-.08-.06-.15-.1-.23-.15-.01-.02-.01-.03,0-.06.07,0,.13,0,.18.02.1.05.16.04.2-.07-.11-.13-.25-.13-.39-.09,0-.02,0-.05.01-.09.16-.03.15-.14.15-.25Z"/>
    <path class="st16" d="M20.03,10.88s0,.02-.02.03c0,0,0-.02.02-.03Z"/>
    <path class="st20" d="M10.97,14.28v-1.1c.25,0,.45,0,.65,0,.14,0,.32.04.41-.04.07-.06.03-.26.03-.39,0-.1.03-.14.13-.13.23,0,.45,0,.68,0,.11,0,.16-.03.15-.15,0-.13,0-.26,0-.4.19-.02.36-.04.56-.05,0,.09,0,.15,0,.21,0,.64,0,1.29,0,1.93,0,.12.04.15.15.14.28-.02.57-.03.85-.03.11,0,.16-.03.15-.15,0-.12-.03-.28.03-.35.06-.06.22-.03.34-.03.1,0,.13-.04.12-.13,0,0,0-.01,0-.02,0-.13.02-.27.03-.4.17,0,.35-.01.52,0,.03,0,.07.06.07.1,0,.49,0,.98,0,1.47,0,.04-.06.08-.1.11-.03.02-.08,0-.11,0q-.37,0-.37.38c0,.39,0,.78,0,1.17,0,.13.04.17.17.16.13,0,.26,0,.41,0,.02.14.02.28.02.46,0,1.24,0,2.45,0,3.66,0,0,0,0-.01,0-.2,0-.39,0-.58,0,0-.01-.01-.02-.02-.04,0-.93,0-1.84,0-2.76,0-.05-.05-.1-.08-.15-.08,0-.14,0-.23,0-.05,0-.09,0-.13,0-.04,0-.06,0-.09-.03,0-.39,0-.75,0-1.14-.2,0-.38,0-.55-.02,0-.2,0-.38,0-.58-.2,0-.38,0-.56-.02,0-.19,0-.36,0-.55-.19,0-.36,0-.53-.02,0-.19,0-.36,0-.54-.34,0-.67,0-.99-.02,0-.19,0-.37,0-.57h-1.09M14.85,17.57s-.08.05-.12.07c.02.02.04.06.06.06.15,0,.3,0,.45,0,0-.02.01-.04.02-.06-.04-.02-.09-.06-.13-.06-.08-.01-.16,0-.28,0Z"/>
    <path class="st37" d="M15.87,20.7c-.01-1.21-.01-2.42-.01-3.65.09.12.24.09.37.08.12,0,.16.03.16.16,0,1.08,0,2.16,0,3.25,0,.14-.05.17-.17.16-.11,0-.22,0-.34,0Z"/>
    <path class="st37" d="M15.26,20.7c.19,0,.38,0,.58,0,.02.34.01.68.02,1.02,0,.11-.04.14-.14.14-.14,0-.28,0-.44-.02-.02-.39-.02-.76-.02-1.13Z"/>
    <path class="st2" d="M15.15,17.75s.07.1.07.15c0,.91,0,1.83,0,2.77,0,.41,0,.8,0,1.18,0,.01,0,.03,0,.06,0,.34,0,.67,0,1.02-.01-.05-.03-.11-.03-.17,0-1.58,0-3.16,0-4.75,0-.17-.04-.24-.21-.21-.03,0-.06,0-.08,0-.13-.02-.18.03-.18.17,0,.66,0,1.33,0,1.99,0,.95,0,1.9,0,2.85,0,.06-.01.12-.03.17-.01-.05,0-.09,0-.12,0-1.68,0-3.37,0-5.06,0,0,0-.02.01-.03.04-.01.06-.02.09-.02.04,0,.07,0,.14,0,.09,0,.16,0,.22,0Z"/>
    <path class="st39" d="M15.24,21.85c0-.38,0-.77,0-1.16.01-.01.02,0,.03,0,0,.38,0,.75,0,1.14,0,.02-.01.02-.02.02Z"/>
    <path class="st19" d="M19.46,10.99c0,.32,0,.66-.01,1,0-.32,0-.66.01-1Z"/>
    <path class="st39" d="M19.66,10.91s-.04.02-.08.03c.01-.01.04-.02.08-.03Z"/>
    <path class="st21" d="M17.39,10.25c.07.2.05.23-.14.23-.34,0-.35,0-.34.35,0,.15-.04.19-.19.18-.34,0-.35,0-.34.34,0,.14-.03.19-.18.19-.35,0-.35,0-.35.34,0,.05,0,.11,0,.18-.15.01-.3.04-.44.04-.1,0-.16.03-.14.14,0,0,0,.01,0,.02,0,.4,0,.4-.41.38-.08,0-.12-.03-.12-.12,0-.44-.02-.89-.03-1.33,0-.13.04-.17.17-.17.39,0,.39,0,.39-.39,0-.13.03-.18.17-.17.13,0,.26,0,.39-.01.03,0,.07-.08.07-.12,0-.22,0-.44.02-.67.1-.1.25-.11.28-.25.05,0,.09,0,.15,0,0,.05-.02.09-.01.14,0,.05.06.09.05.14,0,.2.2.15.28.25,0,0,.06-.01.07-.03.01-.02,0-.05,0-.07-.02-.04-.05-.08-.08-.11,0-.01.01-.03.02-.04.05,0,.12,0,.15.03.02.02,0,.09.03.13.02.09.05.18.07.26.03.19.16.04.23.1,0-.01.01-.02.02-.04-.03-.04-.05-.07-.08-.11.12-.09.14-.08.17.05.01.06.08.1.14.15Z"/>
    <path class="st21" d="M18.16,9.34q-.23.05-.23.28s0,.09,0,.13c0,.22-.02.23-.25.17-.07-.15-.17-.1-.27-.06-.02-.12.01-.2.14-.21.11,0,.14-.07.15-.17.01-.13.05-.26.08-.41.07.06.1.09.15.12.04-.03.08-.06.14-.09.03.08.06.16.09.25Z"/>
    <path class="st39" d="M17.51,5.57c.11,0,.24-.01.37-.01-.02.04-.07.06-.09.1-.03.04-.04.09-.06.14-.12-.05,0-.29-.22-.23Z"/>
    <path class="st39" d="M18.65,8.15s-.04.03-.06.02c-.05-.02-.09-.04-.14-.06.03-.03.07-.09.1-.09.06,0,.15.01.09.13Z"/>
    <path class="st21" d="M14.38,8.24c.02-.06.03-.1.05-.19.13.14-.03.24,0,.34q-.14-.04-.06-.15Z"/>
    <path class="st39" d="M18,7.78c.3,0,.61,0,.93,0-.15.01-.31.02-.47.03-.08,0-.16,0-.27,0-.06,0-.1,0-.13,0-.02,0-.04-.01-.06-.02Z"/>
    <path class="st21" d="M15.56,8.25c.08-.13.11-.04.14.02.02.03,0,.08,0,.12-.05-.04-.1-.09-.15-.14Z"/>
    <path class="st21" d="M15.23,7.29c.13-.01.26-.01.41-.01-.12.08-.26.1-.41.01Z"/>
    <path class="st21" d="M18.44,9.32s-.08.02-.14.04c-.02-.06-.03-.12-.03-.18.02,0,.03,0,.05-.01.04.05.07.1.12.16Z"/>
    <path class="st21" d="M18.58,8.85s-.07.01-.12.01c-.05,0-.09-.01-.13-.02.09-.12.17-.08.25,0Z"/>
    <path class="st21" d="M15.93,6.95c0-.07.01-.15.04-.23.02.08.11.17-.04.23Z"/>
    <path class="st39" d="M19.66,8.15s-.08-.04-.12-.06c.02-.02.03-.03.05-.05.02.04.05.07.07.11Z"/>
    <path class="st21" d="M16.42,8.85c0-.11,0-.23,0-.37,0,.11.01.24,0,.37Z"/>
    <path class="st21" d="M14.66,8.35c-.12,0-.1-.07-.02-.17,0,.07.01.12.02.17Z"/>
    <path class="st21" d="M17.76,8.89s.05.03.07.04c-.02.02-.03.03-.05.05,0-.03-.02-.06-.02-.09Z"/>
    <path class="st39" d="M17.21,7.07s-.07-.02-.1-.03l.03-.05s.05.05.07.08Z"/>
    <path class="st21" d="M14.74,7.34s.1-.04.17-.06c-.05.02-.1.04-.17.06Z"/>
    <path class="st39" d="M17.98,7.95s-.08-.03-.12-.05c.01-.02.03-.04.04-.05.03.03.05.06.08.1Z"/>
    <path class="st39" d="M17.51,6.28s-.02.05-.04.07c-.01-.03-.02-.05-.03-.08.02,0,.04,0,.07.01Z"/>
    <path class="st39" d="M17.34,7.63s0-.05,0-.08c.02,0,.04,0,.06.01-.01.02-.02.05-.05.07Z"/>
    <path class="st21" d="M15.35,8.41s-.04.03-.07.04c0-.01,0-.03,0-.04.02,0,.05,0,.07,0Z"/>
    <path class="st21" d="M18.06,7.82s.07-.01.12-.01c-.01.09-.06.09-.12.01Z"/>
    <path class="st39" d="M19.24,7.69s.04,0,.06.01v.03s-.05-.02-.06-.04Z"/>
    <path class="st21" d="M17.13,9.66s0,.04,0,.05c-.01,0-.03,0-.04-.01.01-.01.02-.03.04-.04Z"/>
    <path class="st21" d="M16.42,9.35s0-.08,0-.14c0,.04.01.09,0,.14Z"/>
    <path class="st21" d="M17.35,9.44s.02.01.03.02c0,0,0,0-.01.01,0,0-.02-.02-.02-.03Z"/>
    <path class="st21" d="M15.72,7.29s.03,0,.05-.01c0,.02,0,.03-.01.05-.01-.01-.03-.02-.04-.04Z"/>
    <path class="st39" d="M19.14,8.33s-.06,0-.11,0c.03,0,.07-.01.11,0Z"/>
    <path class="st21" d="M16.42,9.02s0-.04,0-.08c0,.02.01.05,0,.08Z"/>
    <path class="st21" d="M15.84,8.8s0,.01-.02.03c0,0,0-.01.02-.03Z"/>
    <path class="st21" d="M18.97,8.83s0,.02-.02.02c0,0,0-.02.02-.02Z"/>
    <path class="st0" d="M5.71,14.53s0-.09,0-.15c.02-.03.04-.05.06-.07.51,0,1.01,0,1.5,0,.01,0,.02,0,.04,0,.83,0,1.64,0,2.46,0,0,0,0,0,0,.02,0,.13,0,.24,0,.35q0,.23.23.23t.33-.33c0-.26.02-.23-.22-.24-.05,0-.09-.02-.14-.03.12,0,.24,0,.38,0,.02,0,.01,0,.02.01,0,.19,0,.37,0,.55,0,.01,0,.02,0,.04.39.02.76.02,1.14.04,0,.18,0,.34,0,.51.19,0,.36,0,.53,0,.01,0,.02,0,.04-.02.14,0,.26,0,.39.01.01.15.02.29.02.43,0,.1.04.14.14.14.13,0,.26,0,.4,0,.01.04.02.06.02.09.01.15-.04.37.04.43.1.08.3.03.45.03,0,0,0,0,0,.01,0,.35,0,.69,0,1.03,0,.1.03.15.14.14.14,0,.28,0,.44,0,.14,0,.26,0,.37.01-.06.01-.11.02-.16.02-.25,0-.23-.03-.23.23,0,.96,0,1.91,0,2.87,0,.36,0,.37-.36.36-.14,0-.18.05-.17.18,0,.28,0,.56,0,.84,0,.08,0,.14-.11.14-.12,0-.31-.03-.36.04-.07.08-.03.25-.03.38,0,.14-.05.18-.18.18-.12,0-.3-.03-.35.03-.06.08-.03.24-.03.36,0,.13-.04.16-.17.17-.32.02-.33.02-.33.34,0,.01,0,.02,0,.03-.02.11.03.15.15.15.13,0,.25.02.38.03h-.52c0,.18,0,.36-.02.54-.02.02-.03.02-.05.03-.2,0-.38,0-.57,0-.01,0-.02,0-.04,0-.09,0-.17,0-.24-.01.17-.02.34-.04.5-.04.4,0,.4,0,.38-.41,0-.09-.03-.12-.13-.12-.27,0-.54,0-.8,0-.1,0-.13.04-.13.14,0,.15,0,.31,0,.47,0,.01,0,.02-.02.02-.03-.01-.04-.02-.06-.02-.52,0-1.04,0-1.57,0-.09,0-.11.05-.11.13,0,.18,0,.36,0,.54,0,.15,0,.3,0,.45.15,0,.26,0,.37,0,.13.01.18-.03.17-.16,0-.12.02-.24.03-.36v.56h-.57c0,.18,0,.34-.02.52-.35.01-.68.01-1.02.02-.12,0-.15-.04-.15-.15,0-.26,0-.51,0-.77,0-.12-.02-.18-.16-.17-.13.01-.26,0-.4-.01,0-.14-.01-.26,0-.38.01-.14-.05-.17-.18-.17-1.02,0-2.03,0-3.05,0-.06,0-.12,0-.17,0-.01-.16-.03-.29-.03-.42,0-.12-.04-.15-.15-.15-.3,0-.59,0-.89,0-.03,0-.05-.03-.07-.05.57,0,1.12-.01,1.67-.02,0-.02.02-.05.02-.1,0-.16,0-.29.03-.43.01.03.02.05.02.07,0,.14-.02.29.03.42.02.05.21.03.32.05.02,0,.05.02.06.02.04-.02.11-.06.11-.09,0-.16-.01-.33-.02-.51,0-.59,0-1.17.02-1.74.14,0,.26,0,.38,0,.11,0,.16.03.15.15,0,.27,0,.54,0,.81,0,.27-.02.23.24.23.41,0,.42,0,.41.41,0,.16.05.19.2.19.43,0,.86,0,1.29,0,.12,0,.17-.04.16-.16,0-.1,0-.2,0-.3,0-.11.04-.14.14-.14.19,0,.38,0,.58,0,.14,0,.33.04.39-.03.07-.08.03-.27.04-.41,0,0,0-.01,0-.02-.01-.11.03-.14.14-.14.3,0,.59,0,.89,0,.12,0,.17-.03.16-.16-.01-.13,0-.26,0-.41.16,0,.3,0,.44,0,.1,0,.16-.03.15-.14,0-.09,0-.19,0-.28-.02-.14.04-.17.18-.17.38,0,.39,0,.38-.38,0-.14.04-.18.18-.18.35,0,.35,0,.35-.35,0-.28,0-.57,0-.85h.49c0-.67,0-1.33,0-1.99,0-.36,0-.36-.35-.37-.11,0-.15-.03-.14-.14,0-.13.04-.31-.03-.38-.06-.07-.24-.04-.37-.04-.11,0-.13-.04-.13-.14,0-.11,0-.22,0-.33,0-.09-.02-.13-.12-.13-.34,0-.68,0-1.03,0,0,0-.01,0-.01-.02,0-.15,0-.28,0-.41,0-.1-.03-.14-.13-.13-.2,0-.41,0-.61,0-.42,0-.42,0-.44-.41,0-.08-.03-.12-.12-.12-.58,0-1.15-.01-1.73-.01-.49,0-.97.01-1.46.01-.04,0-.09-.04-.13-.08.02-.11.06-.21-.05-.28Z"/>
    <path class="st38" d="M12.59,24.13c-.13-.01-.26-.04-.39-.04-.12,0-.16-.04-.15-.15,0-.01,0-.02,0-.03,0-.32,0-.32.33-.34.13,0,.17-.04.17-.17,0-.12-.04-.29.03-.36.05-.06.23-.03.35-.03.13,0,.19-.04.18-.18,0-.13-.04-.3.03-.38.05-.07.23-.04.36-.04.11,0,.11-.06.11-.14,0-.28,0-.56,0-.84,0-.13.03-.18.17-.18.36,0,.36,0,.36-.36,0-.96,0-1.91,0-2.87,0-.26-.02-.23.23-.23.05,0,.1,0,.17-.02.07,0,.11.02.16.03,0,1.68,0,3.37,0,5.05,0,.04,0,.08,0,.13-.18.01-.36.01-.55.01,0,.26,0,.5-.01.76-.01.06-.02.1-.02.15,0,.01,0,.02-.01.02-.07-.05-.12-.12-.18-.14-.17-.05-.34-.07-.51-.11-.23-.05-.35.04-.35.28,0,.2,0,.4-.02.6-.08,0-.14,0-.2,0-.15.02-.2-.04-.19-.19,0-.08-.03-.16-.05-.24,0,0,0,0,0,0Z"/>
    <path class="st5" d="M9.8,25.31c-.02.13-.05.25-.04.37,0,.14-.04.17-.17.16-.11,0-.22,0-.37,0,0-.16,0-.31,0-.45,0-.18,0-.36,0-.54,0-.08.01-.13.11-.13.52,0,1.04,0,1.57,0,.02,0,.03.01.06.04.02.18.02.33.02.49,0,.01,0,.02-.02.04-.16,0-.3,0-.44,0-.09,0-.18,0-.3,0-.07,0-.12,0-.17,0-.04,0-.07,0-.12,0-.05,0-.09.01-.13.02Z"/>
    <path class="st29" d="M14.1,23.93s0-.01,0-.02c0,0,.02,0,.02,0v.84h-.55v.56h-.97c0-.38,0-.76,0-1.16.01.06.05.14.04.22,0,.15.03.21.19.19.06,0,.12,0,.21,0,.07,0,.12,0,.16,0,.29,0,.29,0,.34-.29,0-.03.07-.08.11-.08.14-.01.28,0,.44,0v-.25Z"/>
    <path class="st8" d="M10.99,25.23c-.01-.14-.01-.3-.02-.47,0-.02,0-.03.02-.04.06-.01.11-.02.15-.02.08,0,.16,0,.26,0,.02,0,.04,0,.04,0,.18,0,.37,0,.57,0,.03,0,.04,0,.05,0-.06.01-.11.03-.17.04-.25,0-.5,0-.75,0-.1,0-.14.03-.13.13,0,.11,0,.23-.02.35Z"/>
    <path class="st8" d="M10.52,25.3c.13,0,.28,0,.43,0-.13,0-.28,0-.43,0Z"/>
    <path class="st8" d="M10.06,25.3s.08,0,.14,0c-.04,0-.09,0-.14,0Z"/>
    <path class="st14" d="M14.13,23.88s-.02.01-.02.01c0-.04,0-.08.01-.12,0,.03.01.06.01.11Z"/>
    <path class="st38" d="M12.06,24.71s-.03,0-.04,0c0,0,0,0,.03-.01.01,0,.02.01.01.02Z"/>
    <path class="st11" d="M2.93,24.14s.05.05.08.05c.3,0,.59,0,.89,0,.11,0,.16.03.15.15,0,.13.02.26.03.42.05,0,.11,0,.17,0,1.02,0,2.03,0,3.05,0,.13,0,.19.03.18.17-.01.12,0,.24,0,.38,0,.02,0,.02-.01.02s-.02,0-.02,0c-.92,0-1.83,0-2.75,0-.02,0-.03,0-.06.02v.56c-.39,0-.76,0-1.14-.02,0-.17-.01-.31,0-.45,0-.07-.02-.12-.1-.1-.13,0-.27,0-.41,0-.03-.02-.05-.03-.07-.08,0-.18,0-.34,0-.5h-.37c-.06,0-.12-.01-.19-.02-.01-.19-.01-.38,0-.58.06-.02.1-.02.15-.02.02,0,.03,0,.07,0,.05,0,.07,0,.1,0,.02,0,.03,0,.07,0,.08,0,.14.01.19.02Z"/>
    <path class="st3" d="M1.75,22.97c0-.56,0-1.12,0-1.7,0-.01,0-.01,0-.01.01,0,.02,0,.04,0,.55,0,1.09,0,1.64.01,0,0,.02,0,.02,0,0,0,0-.01.02-.01.03,0,.04,0,.07,0,.04,0,.08,0,.13,0,.14,0,.26,0,.38.02,0,.22,0,.42-.02.62-.19,0-.37,0-.57,0,0,.38,0,.74-.01,1.1-.01-.35-.01-.69-.01-1.04-.12.01-.19.03-.25.02-.15-.03-.24-.01-.23.16,0,.02-.03.05-.05.06,0-.06,0-.12.02-.18,0-.03,0-.05-.02-.09-.18-.03-.36-.04-.54-.05-.01,0-.02,0-.02.02,0,.02,0,.03-.01.04,0,.01,0,.02,0,.04,0,.03,0,.04,0,.07,0,.04,0,.08,0,.13,0,.06,0,.11,0,.16,0,.03,0,.06,0,.1,0,.14,0,.26,0,.39,0,.03,0,.06,0,.1,0,.03,0,.04,0,.05-.03-.05-.05-.1-.05-.15,0-.25,0-.49,0-.74,0-.04-.01-.08-.02-.16-.11.18-.1.41-.35.37-.08.2.12.12.18.18-.03.12-.02.25-.2.28-.03,0-.05.08-.06.12-.01.06,0,.13,0,.24-.03-.09-.05-.13-.06-.18Z"/>
    <path class="st12" d="M1.75,22.99s.03.07.06.16c0-.11,0-.18,0-.24,0-.04.03-.12.06-.12.17-.02.17-.16.2-.28-.06-.07-.25.02-.18-.18.25.04.24-.2.35-.37.01.08.02.12.02.16,0,.25,0,.49,0,.74,0,.05.02.1.06.15.21,0,.39-.02.58-.04.02-.2.03-.4.04-.6,0-.03-.03-.06-.05-.1,0-.02,0-.03,0-.05.02-.02.05-.05.05-.07-.01-.18.08-.2.23-.16.07.01.14,0,.25-.02,0,.35,0,.69.02,1.04.02.01.03.02.04.02,0,0,.02,0,.02,0,0,0,.01,0,.02-.01.05,0,.08,0,.12.01-.05.03-.1.05-.15.07-.02.09-.03.17-.04.26-.02.09,0,.16.12.15.04,0,.09.03.12.05-.09,0-.17,0-.26,0-.02,0-.04,0-.07,0-.15,0-.28,0-.42-.02-.04-.02-.07-.04-.11-.04-.32,0-.63,0-.95,0-.04,0-.08.02-.13.03,0,0-.02,0-.02,0,0-.18,0-.35,0-.54M1.78,23.27s0,.03,0,.04c0,0,.01,0,.01,0,0-.01,0-.03-.02-.03Z"/>
    <path class="st2" d="M3.45,23.55c.08,0,.16,0,.26,0,.04,0,.06,0,.09,0,.16,0,.3,0,.46,0,.12,0,.24,0,.35.02,0,.01.01.02.02.03,0,0,.01,0,.01,0,0,.13-.01.27-.02.42-.02-.04-.05-.1-.05-.15,0-.3.03-.26-.26-.27-.79,0-1.59,0-2.38,0-.06,0-.12-.01-.18-.03,0-.01.01-.02.03-.01.1,0,.19,0,.29,0,0,0,.02,0,.04,0,.05,0,.09,0,.13,0,0,0,.02,0,.04,0,.24,0,.46,0,.68,0,.13,0,.27,0,.43,0,.04,0,.05,0,.07,0Z"/>
    <path class="st9" d="M1.18,21.26c-.02-.38-.01-.77,0-1.16.04-.02.08-.02.13-.01-.07.06-.1.13-.1.24.01.18,0,.37,0,.56,0,.36,0,.35.36.35.11,0,.14-.04.14-.14,0-.12.02-.24.03-.34,0,.18,0,.35,0,.51,0,0,0,0,0,0-.18,0-.36,0-.56,0Z"/>
    <path class="st2" d="M2.94,24.14c-.07,0-.13,0-.2-.02,0-.01.01-.03.03-.03.61,0,1.21,0,1.83.02-.54.01-1.09.02-1.66.02Z"/>
    <path class="st2" d="M2.49,24.11s-.08.01-.14.01c.03,0,.08-.01.14-.01Z"/>
    <path class="st2" d="M2.66,24.11s-.04.01-.08,0c.02,0,.04-.01.08,0Z"/>
    <path class="st7" d="M1.77,23.55s-.01,0-.02,0,0-.01,0-.02c0,0,.01,0,.02,0,0,0,0,.02,0,.02Z"/>
    <path class="st6" d="M7.48,25.31c.13,0,.27,0,.4,0,.14-.01.16.05.16.17,0,.26,0,.51,0,.77,0,.11.03.15.15.15.33,0,.67,0,1.02,0,.01,0,.02.01.02.02,0,0-.01.02-.03.02-.56,0-1.11.01-1.65.01-.01,0-.03-.01-.05-.04-.01-.38-.01-.74-.01-1.11,0,0,0,0,0,0Z"/>
    <path class="st2" d="M7.53,26.46c.55,0,1.09-.01,1.65-.01,0,.02-.02.05-.04.05-.54,0-1.07,0-1.61,0,0,0-.02,0-.03,0,0,0,0-.02.02-.03Z"/>
    <path class="st2" d="M7.47,25.32c0,.36.01.72.01,1.1-.01-.04-.03-.1-.03-.15,0-.3,0-.61,0-.93,0-.01.01-.02.02-.02Z"/>
    <path class="st8" d="M3.4,25.33c.08-.03.1.01.09.09,0,.14,0,.28,0,.44-.01-.1-.02-.21-.03-.32,0-.07-.03-.13-.06-.21Z"/>
    <path class="st26" d="M5.76,14.83s.09.06.13.06c.49,0,.97-.01,1.46-.01.58,0,1.15.01,1.73.01.09,0,.11.03.12.12.02.41.03.41.44.41.2,0,.41,0,.61,0,.1,0,.14.03.13.13,0,.13,0,.26,0,.41-.01.02-.02.02-.03.02-.01,0-.02,0-.04,0-.75,0-1.49,0-2.24,0-.01.04-.01.08-.01.14,0,.16,0,.31-.02.45-.03,0-.04,0-.06,0-.01,0-.02,0-.03,0-.03,0-.04,0-.07,0-.03,0-.04,0-.07,0-.07,0-.13,0-.2,0-.05,0-.08,0-.12,0-.02.06-.03.1-.03.15,0,.36,0,.36-.37.37-.05,0-.1.04-.16.07,0,0,0,0,0,0-.01.36-.02.71-.02,1.06,0,.02.02.04.04.06.2,0,.38,0,.57.02,0,.14.02.26,0,.38-.01.14.05.16.17.16.32,0,.63,0,.95.02,0,.09,0,.16,0,.23,0,.39,0,.39.39.38.11,0,.14-.04.14-.15,0-.15.02-.3.03-.44,0,.02,0,.02,0,.03,0,0,0,.01,0,.03,0,.13,0,.24,0,.36,0,.06.02.1.05.15.19,0,.36,0,.53.01-.06.01-.11.02-.15.02-.45,0-.44,0-.43.44,0,.12.05.15.16.15.3,0,.61,0,.91,0,.13,0,.16-.05.15-.16,0-.16,0-.32,0-.48.15,0,.27,0,.39.02.13.01.19-.03.18-.17-.01-.25,0-.49,0-.74,0-.61,0-1.22,0-1.84,0-.12-.03-.17-.16-.16-.14,0-.27,0-.42-.01,0-.2,0-.39,0-.57.34,0,.68,0,1.02,0,.1,0,.12.04.12.13,0,.11,0,.22,0,.33,0,.09.02.14.13.14.13,0,.31-.03.37.04.07.07.03.25.03.38,0,.11.04.14.14.14.35,0,.35,0,.35.37,0,.66,0,1.32,0,1.99h-.49c0,.29,0,.57,0,.85,0,.35,0,.36-.35.35-.14,0-.18.04-.18.18,0,.38,0,.39-.38.38-.13,0-.19.03-.18.17.01.09,0,.19,0,.28,0,.11-.06.14-.15.14-.14,0-.28,0-.44,0,0,.15,0,.28,0,.41,0,.13-.04.16-.16.16-.3,0-.59,0-.89,0-.11,0-.15.04-.14.14,0,0,0,.01,0,.02,0,.14.03.32-.04.41-.06.07-.26.03-.39.03-.19,0-.38,0-.58,0-.1,0-.15.03-.14.14,0,.1,0,.2,0,.3,0,.12-.04.16-.16.16-.43,0-.86,0-1.29,0-.15,0-.2-.03-.2-.19.01-.4,0-.41-.41-.41-.26,0-.24.03-.24-.23,0-.27,0-.54,0-.81,0-.12-.04-.16-.15-.15-.12,0-.25,0-.38-.01-.01-.15-.01-.29,0-.42,0-.02,0-.04,0-.07,0-.02-.01-.02-.01-.03,0,0,0-.02-.01-.03-.12-.02-.22-.03-.33-.02-.12,0-.16-.04-.16-.16,0-.13-.02-.25-.04-.38-.01,0-.01,0-.02-.03-.03-.02-.05-.03-.07-.03-.5,0-1,0-1.51,0-.04,0-.07.03-.12.04,0-.41,0-.81,0-1.22-.2,0-.38,0-.57,0,0,0-.01.02-.01.04,0,.1,0,.19-.01.28-.02-.06-.04-.11-.04-.16.01-.13-.03-.18-.16-.17-.12.01-.24,0-.36,0,0-.36,0-.73.01-1.11.17-.02.31,0,.46-.02.04,0,.11-.06.11-.09,0-.14-.03-.29-.06-.43,0,0-.06,0-.09,0-.14,0-.28,0-.43,0,0,0,0-.01,0-.02,0,0,0,0,.01,0,.2,0,.38,0,.58,0,0-.21,0-.4,0-.59,0-.02,0-.02.02-.03.15,0,.28,0,.41,0,.1,0,.14-.03.14-.14,0-.14.02-.28.03-.42h.56v-.58h.56v-.57h.59c0-.18,0-.34.01-.51.02.04.02.09.02.14,0,.38,0,.37.38.36.1,0,.15-.05.15-.13,0-.14-.02-.27-.02-.41.17,0,.35-.02.54-.04.03-.01.04-.02.05-.02M6.9,20.66s0,0,.03,0c0-.01.02-.03.02-.04,0-.35,0-.7,0-1.04,0-.03-.04-.06-.09-.09h-.52v1.21c.18,0,.34,0,.53,0,0,0,.02-.02.03-.03Z"/>
    <path class="st42" d="M.6,16.58c0-.2,0-.39,0-.61.59-.01,1.16,0,1.73,0,0,.19,0,.38,0,.6,0,.03,0,.03,0,.04,0,0-.02,0-.03-.01-.19-.01-.37-.02-.57-.02-.39,0-.76,0-1.13,0Z"/>
    <path class="st35" d="M.59,16.59c.37-.02.75-.02,1.13,0,.02.2.02.39.02.58,0,0,0,0-.01,0-.2,0-.39,0-.57,0-.18,0-.35,0-.55-.01-.02-.18-.02-.37-.02-.56Z"/>
    <path class="st27" d="M2.33,16.61s0-.01,0-.02c.19,0,.37,0,.58,0,0,.14-.01.28-.01.42,0,.11-.04.14-.14.14-.13,0-.26,0-.41,0-.02,0-.02,0-.02-.02,0-.18,0-.34,0-.51Z"/>
    <path class="st10" d="M5.16,14.88c.02.14.04.28.04.41,0,.09-.05.13-.15.13-.38.01-.38.02-.38-.36,0-.05,0-.1-.02-.16-.01-.02-.01-.02-.01-.04.17,0,.33,0,.52,0Z"/>
    <path class="st2" d="M2.33,15.96c-.57,0-1.14,0-1.72,0,.02-.01.06-.04.1-.04.51,0,1.02,0,1.53,0,.03,0,.06.02.1.04Z"/>
    <path class="st2" d="M2.94,15.43c.06-.01.12-.01.21-.01-.06,0-.13.01-.21.01Z"/>
    <path class="st18" d="M1.75,19.46c.12-.02.24,0,.36-.02.13-.01.18.04.16.17,0,.05.02.1.04.18,0,.32,0,.62-.02.91-.15,0-.28,0-.42-.02-.1-.04-.14-.09-.13-.19.01-.13,0-.27,0-.4,0-.2,0-.4,0-.61Z"/>
    <path class="st6" d="M1.73,20.07c.02.13.03.27.01.4,0,.11.03.16.12.2-.04.03-.08.04-.12.06,0,.12-.03.24-.03.35,0,.1-.03.14-.14.14-.36,0-.36,0-.36-.35,0-.19,0-.37,0-.56,0-.1.03-.17.11-.23.13-.01.26-.01.41-.02Z"/>
    <path class="st27" d="M1.15,17.18c.19-.01.37-.01.57,0,.01.2.01.39.01.58,0,0,0,0,0,0-.19,0-.38-.01-.58-.02,0-.01,0-.02,0-.04.01-.02.01-.03,0-.03,0-.16,0-.31,0-.48Z"/>
    <path class="st3" d="M1.75,17.81c.14-.02.29-.02.43-.02.03,0,.09,0,.09,0,.03.14.05.28.06.43,0,.03-.07.09-.11.09-.15.01-.29,0-.46,0-.02-.17-.02-.33-.02-.51Z"/>
    <path class="st24" d="M.63,18.02c-.01-.22,0-.45-.01-.67,0-.13.04-.17.16-.15.07,0,.14,0,.21,0,.11-.01.13.05.12.15-.11.04-.21.18-.15.28.09.16-.03.26-.06.4-.04-.04-.07-.08-.12-.13-.05.04-.09.08-.15.13M.7,17.59s.12.04.12.03c.05-.13-.02-.2-.11-.29,0,.09-.01.17-.01.26Z"/>
    <path class="st2" d="M2.54,24.75c.11-.01.22-.01.36-.01,0,.16,0,.32,0,.49,0,.02-.01.02-.03.02,0-.03,0-.05,0-.08,0-.11.03-.25-.02-.33-.04-.06-.19-.05-.3-.08Z"/>
    <path class="st35" d="M1.16,17.67s.02,0,0,.02c0,0,0-.01,0-.02Z"/>
    <path class="st40" d="M10.38,14.86c0-.18,0-.35,0-.54.18-.02.37-.03.57-.04.37,0,.73,0,1.1,0,0,.2,0,.38,0,.57,0,.01,0,.01,0,.02-.02,0-.02,0-.03,0,0,0,0,0,0-.02-.53-.01-1.04-.02-1.56-.02-.01,0-.03.02-.05.02,0,0-.02,0-.02,0Z"/>
    <path class="st39" d="M19.02,9.73c.14-.05.28-.05.39.08-.04.11-.11.12-.2.07-.05-.02-.11-.03-.17-.03-.01-.03-.01-.07-.01-.11Z"/>
    <path class="st23" d="M16.17,9.39c-.02.14-.17.15-.27.23-.01-.06-.01-.11,0-.19.02-.02.02-.03.03-.04.08,0,.16,0,.25,0Z"/>
    <path class="st39" d="M19.17,9.39c.02.11.03.22-.14.23,0-.09-.08-.25.14-.23Z"/>
    <path class="st21" d="M15.91,9.39s0,.02-.02.03c0,0,0-.02.02-.03Z"/>
    <path class="st5" d="M9.97,14.3c.06.01.11.03.15.03.24,0,.22-.02.22.24q0,.33-.33.33t-.23-.23c0-.11,0-.22,0-.34.06-.02.11-.02.19-.02Z"/>
    <path class="st2" d="M9.78,14.29c-.8.01-1.62.01-2.46.02-.03,0-.03,0-.04,0-.5,0-.99,0-1.51,0-.03,0-.03,0-.04,0,.04,0,.08-.03.12-.03,1.28,0,2.55,0,3.83,0,.03,0,.05,0,.09.02Z"/>
    <path class="st10" d="M5.72,14.3s.02,0,.03.01c0,.02-.02.04-.04.06-.01,0-.01,0-.02-.02,0-.01,0-.02,0-.03,0,0,.01,0,.02-.01Z"/>
    <path class="st10" d="M5.76,14.82s-.02.01-.04.02c-.01-.09-.02-.18-.02-.29.11.06.08.16.06.27Z"/>
    <path class="st40" d="M14.69,17.8s-.09-.02-.15-.03c-.13,0-.25,0-.39-.02-.02-.4-.01-.79-.01-1.17,0,0,0,0,0,0h.55c0,.38,0,.75,0,1.15,0,.03,0,.04,0,.05,0,0,0,.02,0,.02Z"/>
    <path class="st41" d="M12.49,15.43c-.12,0-.25,0-.39,0-.02,0-.04,0-.04-.02,0-.18,0-.35,0-.52,0-.01,0-.02,0-.03,0,0,0,0,0,0,.32,0,.64,0,.99,0,0,.18,0,.36,0,.54,0,.01,0,.01-.01.02-.19,0-.37,0-.54.01Z"/>
    <path class="st41" d="M13.57,15.98h.56c0,.19,0,.38,0,.58,0,.02,0,.01-.01.01-.19,0-.37,0-.54,0,0,0,0,0,0-.01,0-.2,0-.39,0-.58,0,0,0,0,0,0Z"/>
    <path class="st41" d="M13.05,15.42c.17,0,.34,0,.53,0,0,.19,0,.36,0,.55,0,.02,0,.01-.02.02-.18,0-.35,0-.51-.02,0-.19,0-.37,0-.54,0,0,0,0,0,0Z"/>
    <path class="st33" d="M14.87,17.57c.1,0,.18,0,.26,0,.05,0,.09.04.13.06,0,.02-.01.04-.02.06-.15,0-.3,0-.45,0-.02,0-.04-.04-.06-.06.04-.02.08-.05.13-.07Z"/>
    <path class="st38" d="M15.14,17.75c-.06,0-.12,0-.2,0,.05,0,.12-.01.2,0Z"/>
    <path class="st38" d="M14.71,17.77s-.02,0-.02-.03c.03,0,.06,0,.09,0-.02.01-.04.02-.08.03Z"/>
    <path class="st11" d="M13.58,16.59c.18-.01.35-.01.54-.01.01.38.01.77.01,1.17-.14.02-.28.01-.42.02-.11,0-.14-.04-.14-.14,0-.34,0-.68,0-1.03Z"/>
    <path class="st38" d="M11.14,24.69c-.05.02-.1.02-.16.02-.01-.15,0-.3-.02-.46,0-.1.03-.14.13-.14.27,0,.54,0,.8,0,.09,0,.12.03.13.12.02.41.02.4-.38.41-.17,0-.33.02-.5.04Z"/>
    <path class="st2" d="M10.35,15.99s.01,0,.02,0c0,0,.01,0,.02,0,0,.19,0,.37.01.58,0,.02,0,.04,0,.05,0,.75,0,1.49-.02,2.23-.21,0-.4,0-.59,0,0-.04,0-.07,0-.12,0-.21,0-.41,0-.61,0-.06,0-.11,0-.18,0-.45,0-.89,0-1.34,0-.01,0-.02.01-.02.03.06.05.11.05.17,0,.59,0,1.17,0,1.76,0,.31,0,.3.31.31.15,0,.19-.04.18-.18,0-.88,0-1.77,0-2.65Z"/>
    <path class="st11" d="M13.03,15.42c.01.17.01.35.01.55,0,.03,0,.03,0,.04-.13,0-.26,0-.39,0-.1,0-.14-.04-.14-.14,0-.14-.01-.28-.02-.43.17-.01.35-.02.54-.02Z"/>
    <path class="st5" d="M12.06,14.9c0,.17,0,.33,0,.52,0,.02,0,.04,0,.04h-.53c0-.17,0-.33,0-.52,0-.03,0-.04.01-.05.17,0,.33-.01.48-.02,0,0,0,0,0,.01.01.01.02.02.03.02Z"/>
    <path class="st38" d="M13.06,16.02s0-.02,0-.04c.17,0,.33,0,.51,0,.02.19.02.37.02.57-.16.01-.36.06-.46-.01-.08-.06-.03-.28-.04-.43,0-.03,0-.05-.02-.09Z"/>
    <path class="st17" d="M5.17,23.57c0,.16.02.33.02.49,0,.03-.07.06-.11.09-.01,0-.04-.01-.06-.02-.11-.01-.3,0-.32-.05-.05-.12-.02-.28-.03-.42,0-.02,0-.05-.02-.07-.01,0-.02,0-.02,0,0-.02,0-.02,0-.03,0,0,0,0,.01,0,.18,0,.35,0,.51,0M5.12,23.62s0,0,0,0Z"/>
    <path class="st2" d="M5.18,23.56c-.17.01-.34.01-.52,0-.02-.15-.02-.29-.02-.43,0-.61,0-1.22.02-1.84.01,0,.02-.01.04-.02.15,0,.28,0,.41.02-.08.02-.16.04-.24.04-.15-.01-.19.04-.18.18,0,.58,0,1.15,0,1.73,0,.34-.05.29.29.3.14,0,.17-.05.17-.18,0-.63,0-1.26,0-1.89,0-.06.02-.11.03-.17,0,0,0,.01.01.04,0,.03,0,.05,0,.06,0,.13,0,.27,0,.42,0,.59,0,1.16,0,1.76Z"/>
    <path class="st32" d="M11.53,14.89s0,.01,0,.03c-.38,0-.76,0-1.13-.02,0-.01.01-.02.03-.02.38,0,.74,0,1.1,0Z"/>
    <path class="st11" d="M12.07,15.45s0-.01,0-.02c0,0,.02,0,.02,0,0,.01,0,.02-.02.02Z"/>
    <path class="st38" d="M11.43,24.7s-.01,0-.02,0c0-.01,0-.01.02,0Z"/>
    <path class="st1" d="M10.42,14.88s-.01,0-.03,0c0,0,0-.01,0-.02,0,0,.02,0,.03,0s.01.02.01.02Z"/>
    <path class="st10" d="M7.28,14.31s0,0,.02,0c0,0,0,0-.02,0Z"/>
    <path class="st14" d="M14.09,23.93c.01.08.01.16.01.26-.16,0-.3,0-.44,0-.04,0-.11.05-.11.08-.05.29-.05.29-.34.29-.04,0-.09,0-.15,0-.02-.2-.02-.4-.02-.6,0-.23.12-.33.35-.28.17.04.35.06.51.11.06.02.11.09.18.14Z"/>
    <path class="st22" d="M1.74,20.75s.08-.05.12-.06c.14,0,.27,0,.43,0,.04-.05.07-.1.07-.15,0-.23,0-.46,0-.69,0-.36,0-.35.36-.35.11,0,.14.05.13.15,0,.3,0,.59,0,.89,0,.14.04.19.19.19.46,0,.92,0,1.38,0,.11,0,.16.03.15.15,0,.13,0,.25-.01.38-.03,0-.04,0-.07-.01-.03-.01-.05-.02-.07-.02-.84,0-1.68,0-2.53,0-.04,0-.08.02-.12.03,0,0-.01,0-.03,0,0-.17,0-.33-.01-.51Z"/>
    <path class="st7" d="M4.51,21.25s.03,0,.07,0c.04,0,.05,0,.07,0,0,0,0,0,0,0,0,.01,0,.02,0,.03,0,.61,0,1.22-.01,1.84,0,.14,0,.27,0,.43,0,.01,0,.01,0,0-.01,0-.02,0-.03,0-.11,0-.22,0-.34-.02-.17,0-.32,0-.48,0-.02,0-.03,0-.06,0-.06-.02-.1-.05-.15-.05-.12,0-.14-.06-.12-.15.01-.08.03-.17.04-.26.05-.02.09-.04.16-.07.14-.01.25-.01.38-.01v-1.11c0-.2,0-.4.02-.62.16-.02.3-.02.44-.02M4.48,23.53s.03,0,.04,0c0,0,0-.01,0-.01-.01,0-.03,0-.03.02Z"/>
    <path class="st40" d="M4.03,21.9c.01.36.01.72.01,1.11-.12,0-.24,0-.37,0-.05,0-.09,0-.14,0-.02,0-.04,0-.04,0,0,0-.01,0-.02,0,0-.37,0-.73,0-1.11.19,0,.37,0,.57,0Z"/>
    <path class="st2" d="M2.9,22.2s0,.04,0,.07c0,.25,0,.47,0,.69-.18.01-.36.03-.56.04-.02-.02-.02-.03-.02-.07,0-.05,0-.07,0-.09,0-.12,0-.25,0-.4,0-.05,0-.07,0-.1,0-.05,0-.1,0-.17,0-.06,0-.09,0-.13,0-.02,0-.03,0-.07,0-.02,0-.03,0-.03,0,0,0-.02.02-.04,0-.01.02-.02.02-.02.18.01.35.02.54.06.01.05.02.07.02.09,0,.05-.01.1-.02.17M2.37,22.01c0,.28,0,.56,0,.84,0,.04.06.12.09.12.13,0,.27-.03.4-.05,0,0,0-.03,0-.05,0-.27,0-.55,0-.82,0-.03-.04-.09-.06-.09-.14,0-.28.02-.43.05Z"/>
    <path class="st2" d="M4.5,21.24c-.13.01-.28.01-.43.02-.14,0-.26,0-.41,0-.06,0-.1,0-.13,0-.02,0-.03,0-.07,0-.02,0-.03,0-.03,0-.54,0-1.08,0-1.63,0,.03-.01.07-.03.11-.03.84,0,1.68,0,2.53,0,.02,0,.04,0,.07.02Z"/>
    <path class="st7" d="M3.53,21.27s.06-.01.11,0c-.02,0-.06.01-.11,0Z"/>
    <path class="st12" d="M2.32,22.06s.01.06,0,.11c0-.02-.01-.06,0-.11Z"/>
    <path class="st12" d="M2.32,22.85s.01.04,0,.08c0-.02-.01-.04,0-.08Z"/>
    <path class="st12" d="M2.32,22.35s.01.04,0,.08c0-.02-.01-.04,0-.08Z"/>
    <path class="st12" d="M2.92,22.03s-.02-.03-.02-.06c0,0,.02.03.02.06Z"/>
    <path class="st12" d="M2.32,21.95s0,.01,0,.02c-.01,0-.01,0,0-.02Z"/>
    <path class="st12" d="M2.36,21.89s0,0-.01.01c0,0,0,0,.01-.01Z"/>
    <path class="st7" d="M3.43,21.27s.01,0,.02,0c0,0,0,.01,0,.01,0,0-.01,0-.02,0Z"/>
    <path class="st3" d="M1.79,23.56s-.01-.01-.01-.02c.04-.02.08-.04.12-.04.32,0,.63,0,.95,0,.04,0,.07.02.11.04-.22.01-.44.02-.68.01-.03-.01-.04,0-.04,0-.04,0-.07,0-.13,0-.03-.01-.03,0-.04,0-.09,0-.18,0-.28,0Z"/>
    <path class="st3" d="M2.92,22.97c-.01-.22-.01-.44-.01-.68.02.02.05.05.05.08,0,.2-.02.4-.04.6Z"/>
    <path class="st3" d="M1.79,23.26s.01.02.01.04c0,0,0,0-.01,0,0-.01,0-.03,0-.04Z"/>
    <path class="st7" d="M3.45,23.55s-.02,0-.05,0c0,0,.02-.01.05,0Z"/>
    <path class="st7" d="M3.49,23.02s.01,0,.02,0c0,0,0,.01,0,.01,0,0-.01,0-.02,0Z"/>
    <path class="st12" d="M3.8,23.55c.14,0,.3-.02.45-.01-.15.01-.29.01-.45.01Z"/>
    <path class="st7" d="M2.08,23.56s0-.02.02,0c0,0-.01,0-.02,0Z"/>
    <path class="st7" d="M2.25,23.56s0-.02.02,0c0,0-.01,0-.02,0Z"/>
    <path class="st34" d="M4.61,23.57s0-.01.02-.01c0,.01,0,.02,0,.03-.01,0-.02,0-.02-.02Z"/>
    <path class="st27" d="M9.79,18.86c.19,0,.38,0,.6-.02.03-.04.05-.06.05-.09,0-.68,0-1.35,0-2.03,0-.04-.02-.08-.04-.12,0,0,0-.02,0-.02.14,0,.28,0,.41-.01.12,0,.16.04.16.16,0,.61,0,1.22,0,1.84,0,.25,0,.49,0,.74,0,.14-.05.18-.18.17-.12-.01-.24-.01-.39-.02,0,.16,0,.32,0,.48,0,.12-.02.17-.15.16-.3,0-.61,0-.91,0-.11,0-.15-.04-.16-.15-.01-.44-.02-.44.43-.44.05,0,.1,0,.16-.03.01-.02.02-.03.02-.03,0,0,.01-.01.01-.02,0,0,0-.02-.01-.04,0-.19,0-.36,0-.53,0,0-.01,0-.01,0s0,0,0,0c0,0,0,0,0,0Z"/>
    <path class="st24" d="M10.34,15.99c0,.89,0,1.77.01,2.65,0,.15-.04.19-.18.18-.31,0-.31,0-.31-.31,0-.59,0-1.17,0-1.76,0-.05-.03-.11-.07-.17-.58,0-1.13,0-1.68-.02,0-.14,0-.26,0-.38-.01-.13.04-.17.17-.17.62,0,1.25,0,1.87,0,.06,0,.12-.02.17-.03,0,0,.01,0,.03,0Z"/>
    <path class="st43" d="M8.63,18.85c-.32,0-.63,0-.95,0-.12,0-.18-.03-.17-.16.01-.12,0-.24,0-.38,0-.02,0-.02.01-.03.02-.06.03-.12.03-.17,0-.26,0-.51,0-.77,0-.12.04-.16.15-.15.11,0,.23,0,.34.02,0,.17-.05.37.02.48.06.08.28.06.43.06.1,0,.14.03.14.14,0,.32,0,.63,0,.95,0,0,0,0,0,0Z"/>
    <path class="st34" d="M5.17,21.28c-.01.06-.03.12-.03.18,0,.63,0,1.26,0,1.89,0,.13-.03.19-.17.18-.35-.01-.29.04-.29-.3,0-.58,0-1.15,0-1.73,0-.15.04-.2.18-.18.08,0,.16-.02.25-.04.03-.02.04-.02.06-.02,0,0,0,.01,0,.02Z"/>
    <path class="st15" d="M7.5,18.3s0,0,0,0c-.19,0-.37,0-.57-.02-.01-.38-.01-.75-.01-1.11,0,0,0,0,.01,0,.19,0,.36,0,.55,0v-.58s.07,0,.11.01c-.11.09-.03.22-.05.32-.02.11.04.16.15.16.11,0,.23,0,.34.01,0,.04,0,.06,0,.08,0,0,0,0-.01,0-.18,0-.34,0-.52,0v1.13Z"/>
    <path class="st40" d="M1.76,17.76c-.01-.19-.01-.37-.01-.58,0-.02,0-.02.02-.02.18-.01.35-.02.52-.03,0,0,.01,0,.02,0,.02.01.03.02.04.03v.58c-.19,0-.38,0-.58,0Z"/>
    <path class="st0" d="M9.19,18.88c-.01.15-.03.3-.03.45,0,.1-.03.14-.14.15-.39,0-.39.01-.39-.38,0-.07,0-.14,0-.23,0-.02,0-.02.02-.02.19.01.37.02.55.03,0,0,0,0,0,0Z"/>
    <path class="st2" d="M4.64,21.26s-.03,0-.06,0c-.01-.13-.02-.25,0-.38,0-.12-.04-.15-.15-.15-.46,0-.92,0-1.38,0-.15,0-.19-.05-.19-.19,0-.3,0-.59,0-.89,0-.1-.02-.15-.13-.15-.36,0-.36-.01-.36.35,0,.23,0,.46,0,.69,0,.05-.03.1-.05.15,0-.29,0-.59,0-.9,0-.11,0-.19,0-.31,0-.03.01-.03.01-.04h.56c0,.41,0,.81.02,1.23.06.01.1.01.15.01,0,0,.02,0,.04,0,.17,0,.33,0,.49,0,.02,0,.03-.01.06-.01.33,0,.64,0,.96,0,0,0,0,.01.02.03,0,.19,0,.37.01.55Z"/>
    <path class="st30" d="M8.04,17.07c-.11,0-.23,0-.34,0-.1,0-.17-.05-.15-.16.02-.1-.06-.23.06-.32.06-.01.11-.01.19,0,.03.02.04.03.05.04.01-.02.02-.03.03-.05.01,0,.03,0,.06,0,.02,0,.03,0,.04,0,.01,0,.03,0,.05,0,.01,0,.01,0,.01.01,0,.17,0,.33,0,.48Z"/>
    <path class="st2" d="M6.85,20.69h-.51v-1.21c.17,0,.35,0,.54.01.02.4.03.79.03,1.17,0,0,0,0-.02,0-.02,0-.03.01-.04.02M6.85,20.09v-.54c-.11-.01-.21-.03-.31-.03-.13,0-.19.05-.18.18,0,.19,0,.38,0,.58,0,.39,0,.38.38.36.09,0,.12-.03.11-.12,0-.13,0-.26,0-.43Z"/>
    <path class="st30" d="M9.8,18.86c0,.17,0,.34,0,.54,0,.03,0,.04,0,.05,0,0,0,.01,0,.02-.18,0-.35,0-.54,0-.03-.06-.03-.1-.04-.15,0-.11,0-.22,0-.35,0-.02,0-.03,0-.03h0s0-.02,0-.03c0-.01,0,0,.01-.01.05-.01.08-.02.13-.02.14,0,.26,0,.39.01.03,0,.05,0,.07,0M9.75,19.29c0-.08,0-.16,0-.25,0-.09-.02-.13-.12-.13-.09,0-.19,0-.28,0-.04,0-.09.06-.09.09-.05.37.01.43.39.39.04,0,.07-.06.1-.12Z"/>
    <path class="st2" d="M10.3,15.99s-.1.03-.16.03c-.62,0-1.25,0-1.87,0-.13,0-.18.04-.17.17.01.12,0,.24,0,.38-.03.02-.04.02-.06.02,0,0,0,0,0,0,0-.14,0-.29.02-.46.01-.06.02-.1.02-.13.74,0,1.47,0,2.23,0Z"/>
    <path class="st9" d="M6.91,20.66c-.01-.38-.02-.77-.03-1.17.02.02.06.05.06.08,0,.35,0,.69,0,1.04,0,.01-.01.03-.03.05Z"/>
    <path class="st9" d="M3.06,20.69s-.08,0-.13,0c.03-.02.06-.05.1-.05.5,0,1,0,1.51,0,.02,0,.04.01.07.03-.31.01-.62.01-.96.01-.03,0-.05,0-.06.01-.16,0-.31,0-.49,0-.03-.01-.04,0-.04,0Z"/>
    <path class="st42" d="M7.47,16.59c.01.18.01.37.01.58-.19,0-.36,0-.55,0,.04-.02.09-.06.14-.06.37,0,.37,0,.37-.37,0-.05.01-.1.03-.15Z"/>
    <path class="st9" d="M6.91,17.18c.01.35.01.72.01,1.1-.01,0-.03-.02-.03-.04,0-.35,0-.7.02-1.06Z"/>
    <path class="st9" d="M4.64,21.26c0-.18,0-.35,0-.55.01.11.04.24.04.36,0,.12.04.16.16.16.11,0,.21,0,.33.02,0,.01-.02.01-.05.02-.14,0-.28,0-.43,0-.03,0-.03,0-.04,0,0,0,0,0,0,0Z"/>
    <path class="st1" d="M9.2,19.32s.02.08.03.14c-.01-.03-.02-.08-.03-.14Z"/>
    <path class="st24" d="M8.06,15.99s0,.07,0,.11c0-.03,0-.07,0-.11Z"/>
    <path class="st15" d="M7.86,16.58s-.01.03-.02.05c-.01,0-.02-.02-.03-.04.01-.01.03-.01.05-.01Z"/>
    <path class="st17" d="M5.19,21.38s-.01-.02,0-.05c0,0,.01.02,0,.05Z"/>
    <path class="st4" d="M9.19,18.93s0,0,0,0c0,0,0,.01,0,.01,0,0,0,0,0-.01Z"/>
    <path class="st27" d="M2.33,17.17s-.02,0-.03-.02c.01-.01.02-.01.03-.01,0,0,0,0,0,0,0,0,0,.01,0,.03Z"/>
    <path class="st1" d="M6.86,20.69s0-.02.02-.02c0,0,0,.02-.02.02Z"/>
    <path class="st15" d="M7.96,16.58s0,0-.02,0c0,0,0,0,.02,0Z"/>
    <path class="st18" d="M2.33,19.45s0,.01,0,.02c0,0,0-.01,0-.02Z"/>
    <path class="st27" d="M2.27,17.14c-.17,0-.33.02-.51.03-.02-.19-.02-.38-.02-.58.18-.01.36,0,.54.01,0,.19,0,.36-.01.53Z"/>
    <path class="st38" d="M2.27,17.14c0-.17,0-.35.02-.53,0-.01.03,0,.03,0,0,.17,0,.33,0,.51,0,.02-.02.02-.03.02-.01,0-.02,0-.02,0Z"/>
    <path class="st30" d="M.7,17.58c0-.08,0-.16.02-.25.09.09.16.17.11.29,0,0-.08-.02-.13-.04Z"/>
    <path class="st2" d="M10.43,14.88s-.02-.01-.02-.02c.01-.01.03-.03.04-.03.52,0,1.04,0,1.56.02-.15.01-.3.02-.47.03-.37,0-.73,0-1.11,0Z"/>
    <path class="st1" d="M12.06,14.89s-.02,0-.03,0c0,0,0-.01.02-.02.01,0,.01,0,.01.02Z"/>
    <path class="st43" d="M8.04,16.59s.03-.02.05-.02c.56,0,1.11,0,1.68,0,.02,0,.02.01,0,.03-.02.08-.02.14-.02.2,0,.62,0,1.24,0,1.85,0,.1,0,.17-.14.16-.13,0-.26,0-.39-.02,0-.5,0-.99,0-1.48,0-.12-.04-.16-.16-.16-.34,0-.69,0-1.03,0,0-.02,0-.05,0-.08,0-.17,0-.32,0-.49Z"/>
    <path class="st32" d="M9.22,18.82c.13,0,.26,0,.39,0,.13,0,.14-.06.14-.16,0-.62,0-1.24,0-1.85,0-.06,0-.12.02-.19.01.43.02.87.02,1.34,0,.08,0,.13,0,.17,0,.2,0,.39,0,.62,0,.05,0,.08,0,.1,0,0,0,0-.01,0-.03,0-.04,0-.06.01-.12,0-.24,0-.39,0-.05-.02-.08-.03-.1-.04Z"/>
    <path class="st32" d="M10.4,16.62s.04.06.04.1c0,.68,0,1.35,0,2.03,0,.03-.01.05-.03.08-.01-.73-.01-1.47,0-2.22Z"/>
    <path class="st1" d="M9.8,18.12s-.01-.09-.01-.15c0,.04.01.09.01.15Z"/>
    <path class="st1" d="M9.79,18.85s0-.06,0-.09c0,.02.01.05.01.09,0,.01-.01,0-.01,0Z"/>
    <path class="st0" d="M5.12,23.62s0,0,0,0Z"/>
    <path class="st34" d="M4.64,21.26s.01,0,.02,0c0,.01,0,.02-.01.02,0,0,0,0,0-.02Z"/>
    <path class="st12" d="M4.47,23.52s.02-.01.04-.01c0,0,0,0,0,.01-.01,0-.03,0-.04,0Z"/>
    <path class="st22" d="M2.37,22c.14-.02.28-.04.42-.04.02,0,.06.06.06.09,0,.27,0,.55,0,.82,0,.02,0,.05,0,.05-.13.02-.27.05-.4.05-.03,0-.08-.07-.09-.12,0-.28,0-.56,0-.85Z"/>
    <path class="st1" d="M9.72,18.87s.02-.01.05-.02c.01,0,.02,0,.02,0-.02,0-.04.01-.07.01Z"/>
    <path class="st1" d="M9.8,19.45s0-.01,0-.03c0,0,.01,0,.01.01,0,0,0,0-.01.02Z"/>
    <path class="st4" d="M9.22,18.8s.05.04.09.05c-.02,0-.06.02-.1.03-.19,0-.37-.02-.56-.03-.02-.32-.02-.63-.01-.95,0-.11-.04-.14-.14-.14-.15,0-.37.02-.43-.06-.08-.1-.02-.3-.02-.49,0-.03,0-.04,0-.04,0,0,0,0,0,0,.34,0,.69,0,1.03,0,.12,0,.16.03.16.16,0,.49,0,.97,0,1.48Z"/>
    <path class="st32" d="M8.02,17.16s.02.01.02.03c-.12,0-.23.02-.34,0-.11,0-.15.03-.15.15,0,.26,0,.51,0,.77,0,.05-.01.11-.03.17-.01-.36-.01-.73-.01-1.12.18,0,.34,0,.52,0Z"/>
    <path class="st26" d="M3.6,20.69s.01-.01.03-.02c0,0-.01.01-.03.02Z"/>
    <path class="st26" d="M3.07,20.69s0-.02.02,0c0,0-.01,0-.02,0Z"/>
    <path class="st22" d="M6.85,20.1c0,.15,0,.28,0,.41,0,.08-.03.11-.11.12-.38.02-.38.02-.38-.36,0-.19,0-.38,0-.58,0-.14.05-.19.18-.18.1,0,.2.02.31.03,0,.18,0,.36,0,.56Z"/>
    <path class="st22" d="M9.75,19.3s-.07.1-.1.1c-.37.04-.43-.02-.39-.39,0-.04.06-.09.09-.09.09-.01.19,0,.28,0,.1,0,.13.04.12.13,0,.08,0,.16,0,.26Z"/>
  </g>
</svg>