<?xml version="1.0" encoding="UTF-8"?>
<svg id="Layer_1" xmlns="http://www.w3.org/2000/svg" version="1.1" viewBox="0 0 24 24">
  <!-- Generator: Adobe Illustrator 29.8.2, SVG Export Plug-In . SVG Version: 2.1.1 Build 3)  -->
  <defs>
    <style>
      .st0 {
        stroke-linecap: round;
      }

      .st0, .st1 {
        fill: none;
        stroke: #fff;
        stroke-width: 1.5px;
      }
    </style>
  </defs>
  <path class="st1" d="M14.72,8.16c1.55-.92,2.33-1.38,2.9-1.05.57.33.56,1.22.53,3.01v.46c-.01.51-.02.76.08.99.09.22.28.39.64.73l.33.3c1.29,1.18,1.93,1.77,1.78,2.43-.15.66-1,.96-2.68,1.55l-.44.15c-.48.17-.72.25-.9.42-.18.17-.29.4-.51.87l-.2.43c-.76,1.65-1.13,2.47-1.8,2.55-.66.08-1.17-.63-2.19-2.05l-.26-.37c-.29-.4-.43-.61-.64-.73-.21-.12-.46-.14-.96-.19l-.45-.04c-1.75-.16-2.63-.24-2.89-.85-.26-.61.27-1.35,1.33-2.82l.27-.38c.3-.42.45-.63.51-.87.06-.24,0-.49-.08-.99l-.08-.45c-.33-1.75-.49-2.62.01-3.08.5-.46,1.34-.2,3.01.31l.43.13c.48.15.71.22.96.19.24-.03.46-.16.9-.42l.4-.24Z"/>
  <path class="st0" d="M13.5,6.5l-.5-.5M9.5,2.5l2,2"/>
  <path class="st0" d="M6.5,6.5l-2.5-2.5"/>
  <path class="st0" d="M6,12l-1.5-1.5M2,8l.5.5"/>
</svg>