<?xml version="1.0" encoding="UTF-8"?>
<svg id="Layer_1" xmlns="http://www.w3.org/2000/svg" version="1.1" viewBox="0 0 24 24">
  <!-- Generator: Adobe Illustrator 29.8.2, SVG Export Plug-In . SVG Version: 2.1.1 Build 3)  -->
  <defs>
    <style>
      .st0 {
        fill: #010031;
      }

      .st0, .st1, .st2, .st3, .st4, .st5, .st6, .st7, .st8, .st9, .st10, .st11, .st12, .st13, .st14, .st15, .st16, .st17, .st18, .st19, .st20, .st21, .st22, .st23, .st24, .st25, .st26, .st27, .st28, .st29, .st30, .st31, .st32, .st33, .st34, .st35, .st36, .st37, .st38, .st39, .st40, .st41, .st42, .st43, .st44, .st45, .st46, .st47, .st48 {
        fill-rule: evenodd;
      }

      .st1 {
        fill: #121a27;
      }

      .st2 {
        fill: #030035;
      }

      .st3 {
        fill: #010131;
      }

      .st4 {
        fill: #fcda35;
      }

      .st5 {
        fill: #121b28;
      }

      .st6 {
        fill: #111926;
      }

      .st7 {
        fill: #111a27;
      }

      .st8 {
        fill: #f6a21a;
      }

      .st9 {
        fill: #fef22b;
      }

      .st10 {
        fill: #010130;
      }

      .st11 {
        fill: #faa60a;
      }

      .st12 {
        fill: #fbda1f;
      }

      .st13 {
        fill: #f4b327;
      }

      .st14 {
        fill: #111a28;
      }

      .st15 {
        fill: #161e2b;
      }

      .st16 {
        fill: #fac004;
      }

      .st17 {
        fill: #03012e;
      }

      .st18 {
        fill: #16202e;
      }

      .st19 {
        fill: #000031;
      }

      .st20 {
        fill: #f4cb14;
      }

      .st21 {
        fill: #fac008;
      }

      .st22 {
        fill: #fab407;
      }

      .st23 {
        fill: #faab0b;
      }

      .st24 {
        fill: #030431;
      }

      .st25 {
        fill: #fbdc4c;
      }

      .st26 {
        fill: #131c2a;
      }

      .st27 {
        fill: #f6ad1e;
      }

      .st28 {
        fill: #111826;
      }

      .st29 {
        fill: #0c142e;
      }

      .st30 {
        fill: #121a28;
      }

      .st31 {
        fill: #26282b;
      }

      .st32 {
        fill: #151e2b;
      }

      .st33 {
        fill: #f9ad15;
      }

      .st34 {
        fill: #020232;
      }

      .st35 {
        fill: #120f0b;
      }

      .st36 {
        fill: #fef528;
      }

      .st37 {
        fill: #010033;
      }

      .st38 {
        fill: #fdda27;
      }

      .st39 {
        fill: #fef400;
      }

      .st40 {
        fill: #020030;
      }

      .st41 {
        fill: #000039;
      }

      .st42 {
        fill: #101926;
      }

      .st43 {
        fill: #141b28;
      }

      .st44 {
        fill: #101928;
      }

      .st45 {
        fill: #fef920;
      }

      .st46 {
        fill: #01003b;
      }

      .st47 {
        fill: #060b12;
      }

      .st48 {
        fill: #f5b126;
      }
    </style>
  </defs>
  <path class="st31" d="M14.3,3.38h-1.63V.17h-1.49v3.21h-1.67c.52-.05,1.05-.06,1.58-.05V.13h1.63v3.21c.54-.02,1.06,0,1.58.05Z"/>
  <path class="st44" d="M12.67,3.38h-1.49V.17h1.49v3.21Z"/>
  <path class="st28" d="M9.51,3.38h1.58v.05c-.05.98-.06,1.97-.05,2.97-.47-.02-.94,0-1.39.05h-.14v-3.07Z"/>
  <path class="st42" d="M12.72,3.43v-.05h1.58v3.07h-.05s0-.07-.05-.09c-.49.06-.96.06-1.42,0,0-.98-.03-1.96-.07-2.93Z"/>
  <path class="st22" d="M12.72,6.4v.05h-1.53v-2.97h1.44c-.03.99,0,1.97.09,2.93Z"/>
  <path class="st37" d="M11.09,3.43v3.02h-1.44c.46-.05.92-.06,1.39-.05-.02-1,0-1.99.05-2.97Z"/>
  <path class="st40" d="M12.72,3.43c.04.97.06,1.94.07,2.93.46.06.93.06,1.42,0,.04.02.05.05.05.09h-1.53v-3.02Z"/>
  <path class="st30" d="M14.3,6.49v-.05h1.67c-.01.55-.03,1.09-.05,1.63-.05-.52-.06-1.05-.05-1.58-.45,0-.9,0-1.35.02.43.02.87.03,1.3.02.02.28,0,.56-.05.84-.04.05-.09.09-.14.12.05.08.03.16-.05.23.06.09.1.18.14.28-.04.01-.07.04-.09.07-.43.05-.87.06-1.3.02.03-.27.05-.54.05-.81,0-.28-.03-.54-.09-.79Z"/>
  <path class="st1" d="M9.51,6.45v.05c-.05.53-.06,1.08-.05,1.63h-1.58v-1.67h1.63Z"/>
  <path class="st12" d="M11.09,3.38h1.63v3.02c-.09-.96-.12-1.94-.09-2.93h-1.44v2.97h3.11v1.72c.54-.02,1.06,0,1.58.05h-1.58c-.05-.56-.06-1.14-.05-1.72h-1.53v3.21h1.58v1.53c-.05-.11-.06-.24-.05-.37v-1.12c-.48-.02-.96,0-1.44.05-.02.05-.05.08-.09.12.05.15.04.29-.02.44,0-.1-.04-.19-.12-.26.03-.02.06-.03.09-.05-.04-.04-.04-.09,0-.14-.05,0-.11-.05-.16-.12l-.12.12c.05.01.1.03.14.07-.04.02-.08.03-.14.02.04.05.03.1-.02.16-.06-.1-.14-.1-.23,0-.05-.02-.09-.03-.14-.05-.02.06,0,.1.07.12-.12.02-.22.07-.3.16-.03-.1-.08-.11-.16-.02.03.02.06.03.09.05-.09.05-.17.06-.26.02l-.14.14c-.01-.07-.04-.13-.09-.19-.11.07-.22.18-.33.33-.03-.12-.06-.12-.09,0l-.09-.09s-.07.05-.12.02c.02-.08.03-.17.02-.26.07.13.13.15.21.05-.14,0-.16-.07-.05-.19l-.07-.14c-.13,0-.26.01-.4.05-.12-.06-.12-.11,0-.16-.05-.06-.11-.08-.19-.05,0,.07,0,.14,0,.21-.03-.1-.07-.18-.14-.26.06-.05.12-.09.19-.14-.2-.02-.4-.03-.6-.02v1.53h-3.11v1.44h3.07v.05h-3.07v1.49h1.49v.05h-1.58v-1.53h-3.11c-.02-.52,0-1.03.05-1.53v1.49h3.07c.06-.99.06-1.98,0-2.97v-.05h1.58c-.02-.52,0-1.03.05-1.53v1.53c-.5.05-1.01.06-1.53.05v1.49h3.07v-1.53h1.58v-3.21h-1.53c.02.57,0,1.12-.05,1.67v-1.72h1.58v-3.07Z"/>
  <path class="st29" d="M14.3,6.49c.06.25.09.51.09.79,0,.27-.02.55-.05.81.43.04.87.03,1.3-.02.02-.03.06-.06.09-.07-.04-.1-.08-.19-.14-.28.08-.07.09-.15.05-.23.05-.03.1-.07.14-.12.05-.28.06-.56.05-.84-.43,0-.87,0-1.3-.02.45-.02.9-.03,1.35-.02-.02.54,0,1.06.05,1.58.02.04.05.05.09.05-.05.49-.06.99-.05,1.49h1.53v.09h-1.63v-1.49c-.52-.05-1.05-.06-1.58-.05v-1.67Z"/>
  <path class="st7" d="M7.84,8.12c.05.49.06.99.05,1.49-.51-.01-1.02,0-1.53.05v-1.53h1.49Z"/>
  <path class="st5" d="M16.02,8.12h1.49v1.49h-1.53c-.01-.5,0-1,.05-1.49Z"/>
  <path class="st39" d="M7.98,8.17h.05c.49.04.98.06,1.49.07-.5.02-.99.03-1.49.02.02.49,0,.97-.05,1.44v-1.53Z"/>
  <path class="st24" d="M9.51,6.49v1.67h-1.53c-.05.5-.06,1.01-.05,1.53h-1.58v-.05c.51-.04,1.02-.06,1.53-.05.01-.5,0-1-.05-1.49h1.63c-.02-.55,0-1.09.05-1.63Z"/>
  <path class="st35" d="M17.51,9.7h3.16v1.44c-.05-.46-.06-.92-.05-1.39h-3.02c-.05.49-.06.98-.05,1.49-.05-.5-.06-1.01-.05-1.53Z"/>
  <path class="st6" d="M6.35,9.7v.05c-.05.47-.06.95-.05,1.44-1.02-.02-2.02,0-3.02.05-.05.5-.06,1.01-.05,1.53H.17v-1.58h3.07v-1.49h3.11Z"/>
  <path class="st26" d="M17.6,9.75h3.02c-.02.47,0,.94.05,1.39v.05s.02.05.05.07c1.01.02,2.01.03,3.02.02v1.44h-3.11v-1.49c-1-.05-2.01-.06-3.02-.05v-1.44Z"/>
  <path class="st21" d="M14.3,8.21c.5.05,1.01.06,1.53.05v1.49h1.63v1.49h-3.16v-1.53h-1.58v-3.21h1.53c-.02.58,0,1.15.05,1.72Z"/>
  <path class="st16" d="M7.98,9.7c.05-.47.06-.95.05-1.44.5,0,.99,0,1.49-.02-.5,0-1-.03-1.49-.07h1.49c.05-.55.06-1.11.05-1.67h1.53v3.21h-1.58v1.53h-3.07v-1.49c.52.02,1.03,0,1.53-.05Z"/>
  <path class="st46" d="M6.35,9.75v1.49h-3.07c1-.05,2.01-.06,3.02-.05-.02-.49,0-.97.05-1.44Z"/>
  <path class="st41" d="M17.6,9.75v1.44c1.02-.02,2.02,0,3.02.05h-3.07c-.02-.5,0-1,.05-1.49Z"/>
  <path class="st47" d="M20.67,11.19h3.16v1.58h-3.21v-.05h3.11v-1.44c-1.01,0-2.01,0-3.02-.02-.03-.02-.04-.04-.05-.07Z"/>
  <path class="st38" d="M14.25,10.86s-.05.02-.07.05c-.13-.31-.19-.3-.16.02-.07.03-.13.07-.19.12-.07-.05-.11-.02-.12.09-.02-.02-.04-.04-.07-.05-.12.09-.25.16-.4.19-.02-.03-.03-.06-.05-.09-.06.04-.13.06-.21.05,0,.05,0,.1-.02.14-.02-.08-.03-.15-.05-.23-.07.11-.13.11-.19,0-.02.04-.03.09-.02.14.05-.01.1,0,.14.05l-.28.14c.04.06.07.06.12,0,.03.09,0,.15-.09.19-.05-.07-.11-.13-.19-.19-.1.03-.19,0-.28-.09-.1.07-.09.12.02.16-.05.1-.12.13-.21.07-.09.11-.14.08-.14-.09-.05.07-.1.13-.16.19-.05-.06-.1-.06-.14.02.05.02.09.03.14.05-.08.03-.15.03-.23,0,.06-.03.06-.05,0-.07-.11.06-.17.14-.19.23-.06-.08-.12-.15-.19-.23-.04.01-.07.04-.09.07.05.06.06.13.02.21-.06-.05-.08-.09-.07-.14-.05.07-.1.13-.16.19-.03-.06-.06-.06-.09,0,0,.06,0,.1-.02.14-.03-.04-.06-.09-.07-.14-.07-.05-.19-.05-.35,0,0,.08,0,.16-.02.23-.05-.07-.12-.11-.21-.09,0,.05,0,.1-.02.14-.14-.12-.25-.1-.35.07.04.05.04.1,0,.14.06,0,.11-.02.16-.07.11.04.21.09.3.16-.12.07-.22.11-.33.14l.05.05c-.14.11-.2.24-.16.4-.05-.15-.09-.31-.12-.46h-3.07v-1.44h3.11v-1.53c.2,0,.4,0,.6.02-.06.05-.12.09-.19.14.07.07.11.16.14.26,0-.07,0-.14,0-.21.07-.03.14-.02.19.05-.12.05-.12.11,0,.16.14-.03.27-.05.4-.05l.07.14c-.11.12-.1.18.05.19-.07.1-.14.09-.21-.05,0,.09,0,.18-.02.26.04.03.08.02.12-.02l.09.09c.03-.12.06-.12.09,0,.1-.15.21-.25.33-.33.05.05.08.11.09.19l.14-.14c.08.04.17.03.26-.02-.03-.02-.06-.03-.09-.05.08-.09.13-.08.16.02.08-.09.18-.14.3-.16-.07-.02-.09-.06-.07-.12.05.02.09.03.14.05.09-.1.17-.1.23,0,.05-.06.06-.11.02-.16.06,0,.1,0,.14-.02-.04-.03-.09-.06-.14-.07l.12-.12c.06.07.11.11.16.12-.04.05-.04.1,0,.14-.03.02-.06.03-.09.05.07.07.11.15.12.26.06-.15.07-.3.02-.44.04-.03.07-.07.09-.12.48-.05.96-.06,1.44-.05v1.12Z"/>
  <path class="st18" d="M.22,11.28h2.93v1.44H.22v-1.44Z"/>
  <path class="st23" d="M3.29,11.23h.09c.98.05,1.97.06,2.97.05v1.44h-3.07v-1.49Z"/>
  <path class="st33" d="M20.48,11.23h.14v1.44c-1.03.05-2.07.06-3.11.05v-1.44c1,.02,1.99,0,2.97-.05Z"/>
  <path class="st20" d="M6.35,9.75c.06.99.06,1.98,0,2.97v-1.44c-1,.02-1.99,0-2.97-.05h2.97v-1.49Z"/>
  <path class="st4" d="M14.25,10.86c-.01.13,0,.26.05.37h3.16v1.49h-3.21v1.58h-1.53v3.35s-.05.02-.05.05h-1.49v3.07c.5-.02,1,0,1.49.05h-1.58v-6.51c-.54.02-1.06,0-1.58-.05v-1.53c.03.15.07.31.12.46-.03-.16.02-.29.16-.4l-.05-.05c.1-.02.21-.07.33-.14-.09-.07-.19-.13-.3-.16-.05.05-.1.08-.16.07.04-.04.04-.09,0-.14.09-.17.21-.19.35-.07.02-.04.03-.09.02-.14.09-.01.16.02.21.09.02-.08.03-.15.02-.23.16-.05.28-.05.35,0,.01.05.03.1.07.14.02-.04.03-.08.02-.14.03-.06.06-.06.09,0,.06-.06.12-.12.16-.19,0,.05.01.09.07.14.03-.07.03-.14-.02-.21.02-.03.06-.06.09-.07.06.08.12.15.19.23.01-.09.07-.17.19-.23.06.02.06.04,0,.07.08.03.15.03.23,0-.05-.02-.09-.03-.14-.05.04-.08.08-.09.14-.02.06-.06.12-.12.16-.19,0,.17.04.21.14.09.09.06.16.03.21-.07-.12-.04-.12-.09-.02-.16.08.09.18.12.28.09.07.05.13.11.19.19.09-.04.12-.1.09-.19-.04.06-.08.06-.12,0l.28-.14s-.08-.06-.14-.05c0-.05,0-.1.02-.14.05.11.12.11.19,0,.02.08.03.15.05.23.02-.04.03-.09.02-.14.08,0,.15,0,.21-.05.02.03.03.06.05.09.15-.03.28-.09.4-.19.03,0,.05.03.07.05,0-.11.04-.14.12-.09.06-.05.12-.09.19-.12-.02-.33.03-.33.16-.02.02-.03.04-.04.07-.05Z"/>
  <path class="st9" d="M14.3,8.21h1.58v1.49h1.63c-.02.52,0,1.03.05,1.53h2.93c-.98.05-1.97.06-2.97.05v1.44c1.04.01,2.08,0,3.11-.05v.09h-3.07c-.05.5-.06,1.01-.05,1.53h-1.63v-.05h1.58v-1.49h-3.16v1.49s-.02.05-.05.05v-1.58h3.21v-2.97h-1.63v-1.49c-.52.02-1.03,0-1.53-.05Z"/>
  <path class="st2" d="M3.29,12.77h3.07v1.53c-.05-.49-.06-.98-.05-1.49-1.02.02-2.02,0-3.02-.05Z"/>
  <path class="st11" d="M9.51,12.77v1.49h-3.07v-1.49h3.07Z"/>
  <path class="st8" d="M15.88,14.25h-1.58v-1.49h3.16v1.49h-1.58Z"/>
  <path class="st15" d="M3.24,12.77h.05c1,.05,2.01.06,3.02.05-.02.5,0,1,.05,1.49h1.58v.05H3.24v-1.58Z"/>
  <path class="st43" d="M17.55,12.77c0,.5,0,.99.02,1.49.02-.48.03-.96.02-1.44.97-.02,1.94,0,2.9.05.03-.03.06-.06.07-.09h.05c.05.52.06,1.05.05,1.58h-4.79v-.05h1.63c-.02-.52,0-1.03.05-1.53Z"/>
  <path class="st10" d="M17.55,12.77h3.02s-.04.07-.07.09c-.96-.05-1.93-.06-2.9-.05,0,.48,0,.96-.02,1.44-.02-.5-.03-.99-.02-1.49Z"/>
  <path class="st48" d="M14.3,14.25h1.58v.05c-.05.55-.06,1.11-.05,1.67h-1.58v1.67h-1.53v-3.35h1.53s.05-.02.05-.05Z"/>
  <path class="st19" d="M6.35,14.39v-.05h1.58v1.63c-.05-.52-.06-1.05-.05-1.58h-1.53Z"/>
  <path class="st3" d="M15.88,14.35h1.63v.09c-.51-.05-1.02-.06-1.53-.02-.06.51-.06,1.02,0,1.53-.03.02-.06.03-.09.02v-1.63Z"/>
  <path class="st13" d="M7.93,14.25h1.58c.52.05,1.05.06,1.58.05v3.35h-1.53v-1.67h-1.53c0-.56,0-1.12-.02-1.67-.02.57-.03,1.15-.02,1.72-.03,0-.05-.02-.05-.05v-1.72Z"/>
  <path class="st25" d="M12.53,14.58s.05.02.07.05c.01.12.03.24.07.35-.04.87-.05,1.76-.05,2.67h-1.44c-.02-.93,0-1.86.07-2.79.09.11.16.09.23-.05.02.03.03.06.05.09.08-.12.15-.12.23,0,.09-.09.18-.12.28-.09.04.02.07.05.09.09.02-.09.08-.14.16-.16-.01-.15.04-.16.16-.02.05-.03.07-.08.07-.14Z"/>
  <path class="st36" d="M11.09,17.65v.05h-1.58v-1.67h-1.53c0-.57,0-1.15.02-1.72.02.56.03,1.12.02,1.67h1.53v1.67h1.53Z"/>
  <path class="st45" d="M15.88,14.3v1.67s-.02.05-.05.05h-1.53v1.67h-1.63s.02-.05.05-.05h1.53v-1.67h1.58c-.02-.57,0-1.12.05-1.67Z"/>
  <path class="st14" d="M17.51,14.44v1.58h-1.53v1.67h-1.67v-.05s.08-.09.09-.16c-.05-.46-.06-.91-.02-1.37.49-.03.98-.06,1.46-.09.03,0,.05-.02.05-.05.03,0,.07,0,.09-.02-.06-.51-.06-1.02,0-1.53.51-.04,1.03-.03,1.53.02Z"/>
  <path class="st32" d="M6.35,14.39h1.53c-.02.54,0,1.06.05,1.58,0,.03.02.05.05.05h.05c.47.05.95.06,1.44.05.01.52,0,1.04-.05,1.56.03.02.06.03.09.02v.05h-1.58v-1.63h-1.58v-1.67Z"/>
  <path class="st17" d="M15.83,16.02c-.48.03-.97.06-1.46.09-.04.46-.03.92.02,1.37-.01.07-.05.12-.09.16v-1.63h1.53Z"/>
  <path class="st0" d="M8.03,16.02h1.49v1.63s-.07,0-.09-.02c.05-.52.06-1.03.05-1.56-.49.02-.97,0-1.44-.05Z"/>
  <path class="st34" d="M9.56,17.69h1.53v3.07c-.04-1-.06-2.01-.07-3.02-.47.05-.94.06-1.42.02-.03-.02-.04-.04-.05-.07Z"/>
  <path class="st27" d="M12.67,17.69h.05v3.11h-.05c-.49-.05-.98-.06-1.49-.05v-3.07h1.49Z"/>
  <path class="st30" d="M14.16,17.69h.14v3.11h-1.58v-.05c.05-1,.06-2.01.05-3.02.47.02.94,0,1.39-.05Z"/>
  <path class="st5" d="M9.51,17.69h.05s.02.05.05.07c.48.04.95.03,1.42-.02,0,1.01.03,2.02.07,3.02v.05h-1.58v-3.11Z"/>
  <path class="st37" d="M12.72,17.69h1.44c-.46.05-.92.06-1.39.05.02,1.02,0,2.02-.05,3.02v-3.07Z"/>
  <path class="st6" d="M11.09,20.81h1.63v3.07h-1.63v-3.07Z"/>
</svg>